<svg width="121" height="149" viewBox="0 0 121 149" fill="none" xmlns="http://www.w3.org/2000/svg">
<g clip-path="url(#clip0_1857_6691)">
<path d="M7.65966 3.27346L19.2921 18.5339C19.6579 19.0137 19.426 19.7096 18.8494 19.8646L14.2632 21.0969C13.8158 21.2171 13.5528 21.679 13.6743 22.131L16.7504 33.5794C16.9897 34.4699 15.8437 35.0435 15.2812 34.3157L4.33453 20.1558C3.96331 19.6774 4.19647 18.9753 4.77581 18.8197L8.98478 17.6887C9.43208 17.5685 9.69511 17.1066 9.57364 16.6545L6.18829 4.00167C5.94829 3.10846 7.10039 2.53611 7.66236 3.27273L7.65966 3.27346Z" fill="#9258F1"/>
</g>
<g clip-path="url(#clip1_1857_6691)">
<path d="M96.1188 33.4162L109.459 19.6234C109.878 19.1897 109.729 18.4714 109.175 18.25L104.764 16.489C104.334 16.3172 104.127 15.8277 104.301 15.393L108.697 4.38375C109.039 3.52742 107.968 2.82351 107.324 3.48035L94.794 16.2606C94.3693 16.6922 94.5186 17.4168 95.0757 17.6393L99.1232 19.2554C99.5534 19.4272 99.7605 19.9167 99.5869 20.3514L94.7428 32.5207C94.3999 33.3796 95.477 34.083 96.1214 33.4173L96.1188 33.4162Z" fill="#9258F1"/>
</g>
<g clip-path="url(#clip2_1857_6691)">
<path d="M100.671 60.1395H100.668C98.2712 58.1085 95.1637 56.8854 91.7721 56.8854C91.1648 56.8854 90.5667 56.9242 89.9823 56.9995C88.0573 51.7531 82.9996 48.0083 77.0642 48.0083C69.4719 48.0083 63.3142 54.1378 63.3142 61.7004V73.2566C64.5769 72.6017 66.0092 72.2342 67.5285 72.2342C67.7967 72.2342 68.0625 72.2457 68.326 72.2708H68.3283C70.6314 72.467 72.6871 73.5122 74.1858 75.0913C74.5525 75.4747 74.8848 75.8923 75.1804 76.335C76.1383 77.7773 76.6952 79.5048 76.6952 81.3623C76.6952 86.4033 72.5908 90.4904 67.5285 90.4904C64.334 90.4904 61.5221 88.8633 59.8812 86.3965C58.2404 88.8633 55.4285 90.4904 52.2339 90.4904C47.1717 90.4904 43.0673 86.4033 43.0673 81.3623C43.0673 79.5048 43.6242 77.7773 44.5821 76.335C44.8777 75.8923 45.21 75.4747 45.5767 75.0913C47.0754 73.5099 49.1356 72.4647 51.4387 72.2685C51.7023 72.2457 51.9658 72.2342 52.2339 72.2342C53.7533 72.2342 55.1856 72.6017 56.4483 73.2566V61.7004C56.4483 54.1378 50.2929 48.0083 42.6983 48.0083C36.8362 48.0083 31.8335 51.6595 29.8558 56.8055C29.8329 56.8625 29.81 56.9196 29.7894 56.9766C29.2669 56.9173 28.7352 56.8854 28.1967 56.8854C24.805 56.8854 21.6975 58.1085 19.3004 60.1372C4.73916 71.6478 3.59104 83.0647 3.90499 87.9802C4.04708 90.196 4.86291 92.332 6.30437 94.0253C12.6615 101.503 28.9483 103.71 28.9483 103.71V137.94H90.8142V103.733L90.8165 103.742C91.0479 103.71 107.353 101.451 113.664 94.0253C115.106 92.332 115.922 90.196 116.064 87.9802C116.378 83.0647 115.23 71.6478 100.671 60.1395ZM71.3396 108.731C71.3396 109.739 70.5192 110.556 69.5062 110.556H50.2585C49.2433 110.556 48.4229 109.739 48.4229 108.728V105.992C48.4229 100.951 52.5273 96.8641 57.5896 96.8641H62.1729C67.2352 96.8641 71.3396 100.951 71.3396 105.992V108.731Z" fill="#9258F1"/>
<path d="M56.3269 77.7019C56.2742 77.9301 54.9565 83.3043 48.8033 85.7301C48.6773 85.778 48.549 85.8008 48.4229 85.8008C48.0127 85.8008 47.6254 85.5566 47.465 85.1527C47.2542 84.6256 47.5131 84.0277 48.0425 83.82C53.2033 81.7867 54.3079 77.282 54.3171 77.2387C54.4454 76.6841 55 76.3418 55.5546 76.4696C56.1092 76.5974 56.4552 77.1497 56.3269 77.7019Z" fill="#9258F1"/>
<path d="M72.2975 85.1527C72.1371 85.5566 71.7498 85.8008 71.3396 85.8008C71.2135 85.8008 71.0852 85.778 70.9592 85.7301C64.806 83.3043 63.4883 77.9301 63.4356 77.7019C63.3073 77.1497 63.6533 76.5974 64.2079 76.4696C64.7602 76.3418 65.3148 76.6841 65.4431 77.2341C65.4912 77.4281 66.6073 81.805 71.72 83.82C72.2494 84.0277 72.5083 84.6256 72.2975 85.1527Z" fill="#9258F1"/>
<path d="M27.3217 126.446C28.5384 118.981 23.4482 111.948 15.9524 110.737C8.45664 109.525 1.39372 114.594 0.176981 122.058C-1.03976 129.522 4.05043 136.555 11.5462 137.767C19.042 138.979 26.105 133.91 27.3217 126.446Z" fill="#9258F1"/>
<path d="M28.9483 110.557V137.941H13.75C21.3423 137.941 27.5 131.811 27.5 124.249C27.5 116.686 21.3423 110.557 13.75 110.557H28.9483Z" fill="#9258F1"/>
<path d="M120.827 126.446C122.043 118.982 116.953 111.949 109.458 110.737C101.962 109.525 94.8988 114.594 93.682 122.058C92.4653 129.523 97.5555 136.556 105.051 137.768C112.547 138.979 119.61 133.91 120.827 126.446Z" fill="#9258F1"/>
<path d="M107.25 137.941H90.8141V110.557H107.25C99.6554 110.557 93.5 116.686 93.5 124.249C93.5 131.811 99.6554 137.941 107.25 137.941Z" fill="#9258F1"/>
<path d="M75.1804 76.3352C74.8848 75.8925 74.5525 75.4748 74.1858 75.0915C72.6871 73.5123 70.6314 72.4671 68.3283 72.2709H68.326C68.0625 72.2458 67.7966 72.2344 67.5285 72.2344C66.0091 72.2344 64.5768 72.6018 63.3141 73.2567C61.9231 73.9733 60.7406 75.0344 59.8812 76.3283C59.8835 76.3306 59.8835 76.3329 59.8858 76.3352H59.8766C59.8766 76.3352 59.8789 76.3306 59.8812 76.3283C59.0218 75.0344 57.8393 73.9733 56.4483 73.2567C55.1856 72.6018 53.7533 72.2344 52.2339 72.2344C51.9658 72.2344 51.7023 72.2458 51.4387 72.2686C49.1356 72.4649 47.0754 73.51 45.5766 75.0915C45.21 75.4748 44.8777 75.8925 44.5821 76.3352C43.6241 77.7774 43.0673 79.5049 43.0673 81.3625C43.0673 86.4034 47.1716 90.4905 52.2339 90.4905C55.4285 90.4905 58.2404 88.8635 59.8812 86.3966C61.5221 88.8635 64.3339 90.4905 67.5285 90.4905C72.5908 90.4905 76.6952 86.4034 76.6952 81.3625C76.6952 79.5049 76.1383 77.7774 75.1804 76.3352ZM56.3268 77.7021C56.2741 77.9303 54.9564 83.3045 48.8033 85.7303C48.6773 85.7782 48.5489 85.801 48.4229 85.801C48.0127 85.801 47.6254 85.5568 47.465 85.1529C47.2541 84.6258 47.5131 84.0279 48.0425 83.8202C53.2033 81.7869 54.3079 77.2822 54.3171 77.2388C54.4454 76.6843 55 76.342 55.5546 76.4698C56.1091 76.5976 56.4552 77.1498 56.3268 77.7021ZM72.2975 85.1529C72.1371 85.5568 71.7498 85.801 71.3396 85.801C71.2135 85.801 71.0852 85.7782 70.9591 85.7303C64.806 83.3045 63.4883 77.9303 63.4356 77.7021C63.3073 77.1498 63.6533 76.5976 64.2079 76.4698C64.7602 76.342 65.3148 76.6843 65.4431 77.2343C65.4912 77.4283 66.6073 81.8052 71.72 83.8202C72.2493 84.0279 72.5083 84.6258 72.2975 85.1529Z" fill="white"/>
<path d="M56.3269 77.7019C56.2742 77.9301 54.9565 83.3043 48.8033 85.7301C48.6773 85.778 48.549 85.8008 48.4229 85.8008C48.0127 85.8008 47.6254 85.5566 47.465 85.1527C47.2542 84.6256 47.5131 84.0277 48.0425 83.82C53.2033 81.7867 54.3079 77.282 54.3171 77.2387C54.4454 76.6841 55 76.3418 55.5546 76.4696C56.1092 76.5974 56.4552 77.1497 56.3269 77.7019Z" fill="white"/>
<path d="M59.8871 76.3359H59.8766C59.8766 76.3359 59.8793 76.3307 59.8819 76.3281C59.8845 76.3307 59.8845 76.3333 59.8871 76.3359Z" fill="white"/>
<path d="M59.8819 76.3281C59.8819 76.3281 59.8845 76.3333 59.8871 76.3359H59.8766C59.8766 76.3359 59.8793 76.3307 59.8819 76.3281Z" fill="white"/>
<path d="M72.2975 85.1527C72.1371 85.5566 71.7498 85.8008 71.3396 85.8008C71.2135 85.8008 71.0852 85.778 70.9592 85.7301C64.806 83.3043 63.4883 77.9301 63.4356 77.7019C63.3073 77.1497 63.6533 76.5974 64.2079 76.4696C64.7602 76.3418 65.3148 76.6841 65.4431 77.2341C65.4912 77.4281 66.6073 81.805 71.72 83.82C72.2494 84.0277 72.5083 84.6256 72.2975 85.1527Z" fill="white"/>
<path d="M56.3269 77.7019C56.2742 77.9301 54.9565 83.3043 48.8033 85.7301C48.6773 85.778 48.549 85.8008 48.4229 85.8008C48.0127 85.8008 47.6254 85.5566 47.465 85.1527C47.2542 84.6256 47.5131 84.0277 48.0425 83.82C53.2033 81.7867 54.3079 77.282 54.3171 77.2387C54.4454 76.6841 55 76.3418 55.5546 76.4696C56.1092 76.5974 56.4552 77.1497 56.3269 77.7019Z" fill="black"/>
<path d="M72.2975 85.1527C72.1371 85.5566 71.7498 85.8008 71.3396 85.8008C71.2135 85.8008 71.0852 85.778 70.9592 85.7301C64.806 83.3043 63.4883 77.9301 63.4356 77.7019C63.3073 77.1497 63.6533 76.5974 64.2079 76.4696C64.7602 76.3418 65.3148 76.6841 65.4431 77.2341C65.4912 77.4281 66.6073 81.805 71.72 83.82C72.2494 84.0277 72.5083 84.6256 72.2975 85.1527Z" fill="black"/>
<path d="M90.8168 103.733V103.743H90.8141V103.733H90.8168Z" fill="#9258F1"/>
<path d="M29.8237 56.8008C29.8237 56.8008 30.1056 56.835 30.5823 56.94C38.4702 58.6766 43.1131 66.8691 40.5739 74.507C39.7191 77.0811 38.1058 79.8766 35.1496 82.3047" stroke="#7247C4" stroke-width="3" stroke-linecap="round" stroke-linejoin="round"/>
<path d="M89.6981 57.0293C89.6981 57.0293 89.4163 57.0635 88.9396 57.1685C81.0517 58.9051 76.4088 67.0976 78.9479 74.7355C79.8027 77.3096 81.4161 80.1051 84.3723 82.5332" stroke="#7247C4" stroke-width="3" stroke-linecap="round" stroke-linejoin="round"/>
<path d="M63.3141 137.94C63.3141 137.94 66.6096 156.628 91.7056 145.435L107.25 137.94H63.3141Z" fill="#9258F1"/>
<path d="M105.25 137.94H88.8142" stroke="#7247C4" stroke-width="3" stroke-linecap="round" stroke-linejoin="round"/>
<path d="M56.3544 137.94C56.3544 137.94 53.0589 156.628 27.9629 145.435L12.4185 137.94H56.3544Z" fill="#9258F1"/>
<path d="M14.4186 137.94H30.8544" stroke="#7247C4" stroke-width="3" stroke-linecap="round" stroke-linejoin="round"/>
</g>
<defs>
<clipPath id="clip0_1857_6691">
<rect width="15" height="33" fill="white" transform="matrix(-0.965745 0.259493 0.259493 0.965745 14.6101 0.862793)"/>
</clipPath>
<clipPath id="clip1_1857_6691">
<rect width="15" height="33" fill="white" transform="translate(102.739 36.624) rotate(-158.233)"/>
</clipPath>
<clipPath id="clip2_1857_6691">
<rect width="121" height="101" fill="white" transform="translate(0 48.0083)"/>
</clipPath>
</defs>
</svg>
