<svg width="17" height="16" viewBox="0 0 17 16" fill="none" xmlns="http://www.w3.org/2000/svg">
<path fill-rule="evenodd" clip-rule="evenodd" d="M11.1687 7.112C11.0098 7.11571 10.8518 7.08762 10.7039 7.02938C10.5561 6.97115 10.4214 6.88393 10.3077 6.77287C10.1941 6.66181 10.1038 6.52915 10.0421 6.38268C9.9805 6.23621 9.94877 6.0789 9.94881 5.91999C9.94886 5.76108 9.98068 5.60379 10.0424 5.45736C10.1041 5.31092 10.1945 5.17831 10.3082 5.06731C10.4219 4.95632 10.5567 4.86918 10.7046 4.81102C10.8525 4.75287 11.0105 4.72486 11.1693 4.72867C11.4805 4.73611 11.7764 4.86498 11.9938 5.08772C12.2112 5.31046 12.3329 5.6094 12.3328 5.92066C12.3327 6.23192 12.2109 6.53079 11.9934 6.75341C11.7758 6.97603 11.4798 7.10473 11.1687 7.112ZM10.0193 11.1867H6.00333C5.86174 11.1869 5.72271 11.1489 5.60086 11.0768C5.47902 11.0047 5.37886 10.901 5.31091 10.7768C5.24297 10.6526 5.20975 10.5123 5.21475 10.3708C5.21975 10.2293 5.26279 10.0918 5.33933 9.97267L7.348 6.84267C7.41928 6.73132 7.51742 6.6397 7.6334 6.57623C7.74938 6.51277 7.87946 6.47951 8.01167 6.47951C8.14387 6.47951 8.27395 6.51277 8.38993 6.57623C8.50591 6.6397 8.60406 6.73132 8.67533 6.84267L10.6827 9.97267C10.7592 10.0917 10.8022 10.2292 10.8072 10.3707C10.8123 10.5121 10.7791 10.6523 10.7112 10.7765C10.6434 10.9007 10.5433 11.0043 10.4216 11.0765C10.2998 11.1487 10.1609 11.1867 10.0193 11.1867ZM13.358 1.5H3.642C3.20651 1.5 2.78887 1.673 2.48093 1.98093C2.173 2.28887 2 2.70651 2 3.142V12.858C2 13.2935 2.173 13.7111 2.48093 14.0191C2.78887 14.327 3.20651 14.5 3.642 14.5H13.358C13.7935 14.5 14.2111 14.327 14.5191 14.0191C14.827 13.7111 15 13.2935 15 12.858V3.142C15 2.70651 14.827 2.28887 14.5191 1.98093C14.2111 1.673 13.7935 1.5 13.358 1.5Z" fill="#D3D9DF"/>
</svg>
