<svg width="51" height="37" viewBox="0 0 51 37" fill="none" xmlns="http://www.w3.org/2000/svg">
<g id="_&#235;&#160;&#136;&#236;&#157;&#180;&#236;&#150;&#180;_1" clip-path="url(#clip0_2020_2226)">
<g id="Group 19">
<path id="Vector" d="M50.4686 9.00253C50.4686 13.6973 45.6997 17.5051 39.8143 17.5051C39.1331 17.5051 38.4653 17.4545 37.8177 17.3567C37.6997 17.3398 37.5782 17.3567 37.4669 17.4073L32.8835 19.5523C32.4079 19.7749 31.8885 19.3398 32.0234 18.8305L32.8093 15.903C32.8767 15.6535 32.7789 15.3938 32.5698 15.2386C30.472 13.6872 29.16 11.468 29.16 9.0059C29.16 4.30776 33.929 0.5 39.8143 0.5C45.6997 0.5 50.4686 4.30776 50.4686 9.0059V9.00253Z" fill="#E8DAFF"/>
<ellipse id="Ellipse 34" cx="34.6036" cy="9.20283" rx="1.34907" ry="1.33845" fill="#9358F2"/>
<ellipse id="Ellipse 35" cx="39.8144" cy="9.20283" rx="1.34907" ry="1.33845" fill="#9358F2"/>
<ellipse id="Ellipse 36" cx="45.0255" cy="9.20283" rx="1.34907" ry="1.33845" fill="#9358F2"/>
</g>
<path id="Vector_2" d="M15.6811 18.6037C18.4705 18.6037 20.7317 16.3425 20.7317 13.5531C20.7317 10.7636 18.4705 8.50238 15.6811 8.50238C12.8916 8.50238 10.6304 10.7636 10.6304 13.5531C10.6304 16.3425 12.8916 18.6037 15.6811 18.6037Z" fill="#9258F1"/>
<path id="Vector_3" d="M28.3021 18.6037C31.0916 18.6037 33.3528 16.3425 33.3528 13.5531C33.3528 10.7636 31.0916 8.50238 28.3021 8.50238C25.5127 8.50238 23.2515 10.7636 23.2515 13.5531C23.2515 16.3425 25.5127 18.6037 28.3021 18.6037Z" fill="#9258F1"/>
<path id="Vector_4" d="M44.4285 36.5H0.00380609C0.0685097 33.7672 2.30269 31.5711 5.05068 31.5711H10.6304V29.0514H5.05068C2.26082 29.0514 0 26.7906 0 24.0008C0 21.2109 2.26082 18.9501 5.05068 18.9501H10.6304V13.553H20.7318V18.9501H23.2514V13.553H33.349V18.9501H39.3854C42.1753 18.9501 44.4323 21.2109 44.4323 24.0008C44.4323 26.7906 42.1753 29.0514 39.3854 29.0514H33.349V31.5711H39.3854C42.1334 31.5711 44.3676 33.7672 44.4285 36.5Z" fill="#9258F1"/>
<path id="Vector_5" d="M19.4112 24.172C21.2694 24.172 22.7757 22.6657 22.7757 20.8075C22.7757 18.9492 21.2694 17.4429 19.4112 17.4429C17.5529 17.4429 16.0466 18.9492 16.0466 20.8075C16.0466 22.6657 17.5529 24.172 19.4112 24.172Z" fill="white"/>
<path id="Vector_6" d="M25.025 24.172C26.8833 24.172 28.3896 22.6657 28.3896 20.8075C28.3896 18.9492 26.8833 17.4429 25.025 17.4429C23.1668 17.4429 21.6605 18.9492 21.6605 20.8075C21.6605 22.6657 23.1668 24.172 25.025 24.172Z" fill="white"/>
<path id="Vector_7" d="M20.4654 22.3984C21.6278 22.3984 22.5701 21.4561 22.5701 20.2937C22.5701 19.1312 21.6278 18.1889 20.4654 18.1889C19.3029 18.1889 18.3606 19.1312 18.3606 20.2937C18.3606 21.4561 19.3029 22.3984 20.4654 22.3984Z" fill="black"/>
<path id="Vector_8" d="M26.1974 22.3984C27.3598 22.3984 28.3021 21.4561 28.3021 20.2937C28.3021 19.1312 27.3598 18.1889 26.1974 18.1889C25.0349 18.1889 24.0926 19.1312 24.0926 20.2937C24.0926 21.4561 25.0349 22.3984 26.1974 22.3984Z" fill="black"/>
</g>
<defs>
<clipPath id="clip0_2020_2226">
<rect width="50.86" height="36" fill="white" transform="translate(0 0.5)"/>
</clipPath>
</defs>
</svg>
