<svg width="209" height="113" viewBox="0 0 209 113" fill="none" xmlns="http://www.w3.org/2000/svg">
<g clip-path="url(#clip0_1698_2368)">
<path d="M109.694 28.3616C108.792 26.5918 107.81 25.0483 106.84 23.7268C102.666 18.0386 97.7961 15.1903 96.293 14.3986C84.7215 8.23078 72.0559 8.57844 60.6193 15.3829C60.3874 15.5212 60.1576 15.6594 59.932 15.8018C59.7423 15.6133 59.5483 15.429 59.3544 15.2426C49.716 6.09665 37.4425 2.97399 24.7874 6.4464C23.1473 6.88621 17.761 8.59519 12.4232 13.2279C7.24775 17.7202 0.986608 25.9237 0.223465 39.6375C-0.70622 46.4587 -0.288808 68.6943 34.2213 101.441C36.3041 103.418 38.8866 104.547 41.5428 104.843C45.3311 105.264 49.2691 103.986 52.1045 101.035C56.9301 96.0171 56.7466 88.0628 51.6956 83.2688C25.5716 58.4781 25.2765 44.2199 25.306 42.9654C25.3903 42.4544 25.443 41.9391 25.4641 41.4218C25.618 37.5368 26.6552 34.5838 28.5483 32.6445C29.8406 31.3209 31.2193 30.7784 31.4744 30.6863C31.4828 30.6842 31.4891 30.6821 31.4976 30.68C35.4166 29.5951 38.4038 30.3072 41.4901 33.055C44.393 35.6415 46.05 38.9233 46.2756 39.3862C48.0422 43.6 51.8452 46.5153 56.4157 47.0242C60.9861 47.5331 65.3436 45.5226 68.0041 41.803C68.3266 41.4009 70.673 38.5631 74.0818 36.6782C77.7015 34.676 80.7751 34.6404 84.3547 36.5567C84.361 36.5609 84.3695 36.5651 84.3758 36.5672C84.477 36.6321 84.77 36.8311 85.1516 37.1682C87.4199 33.7985 91.2841 31.5785 95.6733 31.5785C102.66 31.5785 108.322 37.2038 108.322 44.1445C108.322 51.0851 102.66 56.7105 95.6733 56.7105C92.1042 56.7105 88.8809 55.2424 86.5788 52.88C84.6267 57.0435 79.3121 65.1591 65.1433 75.4339C59.502 79.5262 58.2666 87.3863 62.3859 92.9928C66.5052 98.5973 74.417 99.8246 80.0604 95.7322C86.1719 91.2985 91.4823 86.7873 95.9642 82.2196C93.3859 80.0456 91.6889 76.8559 91.5181 73.2369C91.1872 66.3047 96.5755 60.4175 103.553 60.0908L111.084 59.7368C112.018 57.1524 112.49 55.0078 112.722 53.3784C112.724 53.3659 112.726 53.3533 112.726 53.3428C112.789 52.9051 112.833 52.5072 112.865 52.147C114.613 41.8575 112.559 33.9744 109.697 28.3616H109.694ZM73.8562 27.6662C73.3587 32.2654 69.2015 35.5933 64.5699 35.099C61.648 34.787 59.2384 33.0277 57.9799 30.6172C56.2365 32.7073 53.5022 33.9178 50.5804 33.6058C45.9509 33.1115 42.6011 28.9815 43.0986 24.3823C43.5961 19.7811 47.7534 16.4531 52.3828 16.9474C55.3047 17.2595 57.7164 19.0187 58.9749 21.4293C60.7184 19.3391 63.4505 18.1286 66.3724 18.4407C71.0039 18.9349 74.3537 23.065 73.8562 27.6662Z" fill="#8F89FF"/>
<path d="M208.987 20.9392C208.658 14.0069 202.733 8.65382 195.755 8.98263C191.81 9.16693 188.374 11.1272 186.192 14.0509C186.192 14.0509 186.188 14.0551 186.179 14.0656C185.933 14.3672 181.86 19.2407 172.833 24.5436L172.234 11.9733C171.905 5.04108 165.979 -0.314139 159.001 0.014672C152.024 0.343483 146.635 6.22857 146.966 13.1608L147.487 24.0828C148.737 23.2262 150.238 22.6943 151.865 22.6189C151.912 22.6168 151.954 22.6147 152 22.6126H152.002C154.418 22.5372 156.634 23.4817 158.224 25.0588C158.367 25.2012 158.504 25.3457 158.635 25.4965C159.834 26.8683 160.595 28.6359 160.688 30.5899C160.907 35.2121 157.315 39.1348 152.662 39.3547C151.033 39.4301 149.49 39.0427 148.164 38.3075C147.101 37.719 146.178 36.9064 145.457 35.9326C144.616 37.3316 143.376 38.4709 141.883 39.1893C140.888 39.6689 139.784 39.96 138.61 40.0144C133.957 40.2343 130.008 36.6635 129.787 32.0434C129.701 30.2297 130.202 28.5228 131.121 27.107H131.124C131.381 26.7091 131.674 26.3342 131.994 25.9866C133.143 24.7425 134.669 23.8399 136.402 23.465C136.86 23.3644 137.33 23.3016 137.813 23.2786C138.987 23.2241 140.115 23.4105 141.15 23.7938L140.657 13.4582C140.328 6.52597 134.402 1.17075 127.424 1.49956C120.446 1.82837 115.058 7.71346 115.388 14.6457L116.023 27.9887L114.783 28.062L109.697 28.3615C112.559 33.9744 114.613 41.8574 112.865 52.1469C112.833 52.5072 112.789 52.9051 112.726 53.3428L115.745 53.1669L117.218 53.081L117.522 59.4331L111.084 59.7368L103.553 60.0908C96.5755 60.4175 91.1872 66.3046 91.5181 73.2369C91.6889 76.8559 93.3859 80.0456 95.9642 82.2195C98.3211 84.2091 101.416 85.3506 104.751 85.1935L118.717 84.538L119.453 99.9984C119.784 106.931 125.708 112.286 132.686 111.957C139.664 111.628 145.054 105.743 144.723 98.8109L143.987 83.3505L150.295 83.0531C150.295 83.0531 158.209 102.191 167.875 109.794C167.881 109.798 167.885 109.802 167.891 109.806C170.276 111.924 173.465 113.149 176.912 112.985C183.89 112.657 189.281 106.771 188.95 99.8392C188.8 96.704 187.505 93.8913 185.486 91.7802H185.484C185.431 91.7383 184.706 91.1791 183.477 90.0754C181.71 88.4879 178.902 85.7757 175.565 81.8656L190.666 81.1556C197.643 80.8268 203.032 74.9417 202.703 68.0094C202.372 61.0772 196.448 55.722 189.47 56.0508L174.368 56.7607L174.028 49.6023C176.929 48.4609 192.715 41.958 203.993 31.5512C203.993 31.5491 203.997 31.547 203.999 31.547C204.002 31.5449 204.006 31.5428 204.008 31.5386C204.792 30.814 205.553 30.0726 206.289 29.3124C206.289 29.3124 206.289 29.311 206.289 29.3082C208.108 27.0149 209.135 24.0849 208.985 20.9392H208.987ZM156.573 50.7793H156.571C156.044 54.5366 152.989 57.5419 149.1 57.9441V57.9482L148.984 57.9545C148.863 57.965 148.739 57.9734 148.617 57.9797L144.407 58.1786C144.272 58.1849 144.137 58.1891 144.002 58.1891H143.996L142.784 58.1011C141.122 57.8603 139.609 57.1356 138.403 56.0696C137.197 55.0015 136.297 53.5941 135.865 51.9899C135.709 51.4181 135.614 50.8212 135.584 50.2055L135.466 47.6965C135.422 46.7729 136.141 45.9875 137.071 45.9435L142.193 45.7027L148.501 45.4053L154.758 45.112C155.69 45.0681 156.478 45.7822 156.522 46.7079L156.642 49.2169C156.668 49.7489 156.642 50.2704 156.573 50.7793Z" fill="#9258F1"/>
<path d="M206.289 29.3124C205.627 30.1459 204.862 30.8936 204.008 31.5387C204.792 30.814 205.553 30.0726 206.289 29.3124Z" fill="#9258F1"/>
<path d="M108.32 44.1445C108.32 51.0851 102.657 56.7105 95.6711 56.7105C92.1021 56.7105 88.8788 55.2424 86.5767 52.8799C84.3779 50.6181 83.0224 47.5394 83.0224 44.1445C83.0224 41.5642 83.8066 39.1641 85.1495 37.1682C87.4178 33.7984 91.282 31.5784 95.6711 31.5784C102.657 31.5784 108.32 37.2038 108.32 44.1445Z" fill="#9258F1"/>
<path d="M73.8583 27.6662C73.3608 32.2654 69.2036 35.5933 64.572 35.099C61.6502 34.787 59.2406 33.0277 57.982 30.6171C56.2386 32.7073 53.5044 33.9178 50.5825 33.6058C45.953 33.1115 42.6032 28.9815 43.1007 24.3823C43.5982 19.781 47.7555 16.4531 52.3849 16.9474C55.3068 17.2594 57.7185 19.0187 58.9771 21.4293C60.7205 19.3391 63.4526 18.1286 66.3745 18.4407C71.006 18.9349 74.3559 23.065 73.8583 27.6662Z" fill="white"/>
<path d="M185.482 91.7781C185.429 91.7383 184.704 91.1791 183.475 90.0754C184.202 90.5717 184.877 91.1435 185.482 91.7781Z" fill="#9258F1"/>
<path d="M141.711 35.5619C140.842 36.3305 139.712 36.8185 138.46 36.8771C135.553 37.0133 133.084 34.7828 132.947 31.8947C132.837 29.6286 134.197 27.6306 136.192 26.8096C136.74 26.5835 137.336 26.4452 137.962 26.4159C138.546 26.3887 139.113 26.4578 139.647 26.6086C140.256 26.7782 140.821 27.0568 141.321 27.4191C142.562 28.3238 143.395 29.7543 143.473 31.4004C143.551 33.0445 142.857 34.5482 141.708 35.5619H141.711Z" fill="black"/>
<path d="M69.0434 30.747C68.1748 31.5156 67.0448 32.0036 65.7926 32.0622C62.8855 32.1984 60.4169 29.9679 60.2799 27.0798C60.1702 24.8137 61.53 22.8157 63.5243 21.9948C64.0724 21.7686 64.669 21.6303 65.2951 21.601C65.8791 21.5738 66.4461 21.6429 66.9795 21.7937C67.5887 21.9633 68.1537 22.2419 68.6534 22.6042C69.895 23.509 70.7277 24.9394 70.8058 26.5856C70.8838 28.2296 70.1902 29.7333 69.0412 30.747H69.0434Z" fill="black"/>
<path d="M144.71 26.3112L145.29 26.2776C145.195 26.4159 145.105 26.5562 145.018 26.7007C144.919 26.5667 144.816 26.4368 144.71 26.3112Z" fill="#9258F1"/>
<path d="M148.984 57.9545C148.863 57.965 148.739 57.9734 148.617 57.9797L144.407 58.1786C144.272 58.1849 144.137 58.1891 144.002 58.1891L148.984 57.9545Z" fill="#9258F1"/>
<path d="M160.686 30.5899C160.593 28.6359 159.832 26.8682 158.633 25.4964C158.502 25.3456 158.365 25.2011 158.221 25.0587C156.632 23.4817 154.416 22.5371 152 22.6125H151.998C151.952 22.6146 151.91 22.6167 151.863 22.6188C150.236 22.6942 148.735 23.2262 147.485 24.0828C146.62 24.6734 145.876 25.419 145.288 26.2776C145.193 26.4159 145.103 26.5562 145.016 26.7007C144.917 26.5666 144.814 26.4368 144.708 26.3111C143.77 25.1844 142.543 24.309 141.148 23.7937C140.113 23.4105 138.985 23.2241 137.811 23.2785C137.328 23.3016 136.858 23.3644 136.4 23.4649C134.667 23.8398 133.141 24.7425 131.992 25.9865C131.672 26.3342 131.379 26.7091 131.121 27.107H131.119C130.2 28.5228 129.698 30.2296 129.785 32.0433C130.006 36.6634 133.955 40.2343 138.607 40.0144C139.782 39.9599 140.886 39.6688 141.881 39.1892C143.374 38.4709 144.613 37.3315 145.455 35.9325C146.176 36.9064 147.099 37.719 148.161 38.3075C149.487 39.0426 151.031 39.4301 152.66 39.3547C157.313 39.1348 160.905 35.2121 160.686 30.5899ZM141.708 35.5618C140.84 36.3305 139.71 36.8184 138.458 36.8771C135.551 37.0132 133.082 34.7827 132.945 31.8946C132.835 29.6286 134.195 27.6306 136.189 26.8096C136.738 26.5834 137.334 26.4452 137.96 26.4159C138.544 26.3886 139.111 26.4577 139.645 26.6085C140.254 26.7782 140.819 27.0567 141.318 27.419C142.56 28.3238 143.393 29.7542 143.471 31.4004C143.549 33.0444 142.855 34.5482 141.706 35.5618H141.708ZM152.513 36.2153C150.647 36.3032 148.963 35.4173 147.957 34.0078C147.394 33.2183 147.046 32.2674 146.998 31.2328C146.949 30.1982 147.206 29.2181 147.689 28.3824C148.36 27.2201 149.469 26.3342 150.803 25.9551C151.189 25.8441 151.594 25.775 152.013 25.7561C152.388 25.7394 152.757 25.7603 153.113 25.819H153.116C155.519 26.2085 157.408 28.2233 157.528 30.7386C157.665 33.6267 155.42 36.0791 152.513 36.2153Z" fill="white"/>
<path d="M152.515 36.2153C150.649 36.3033 148.965 35.4174 147.959 34.0079C147.396 33.2183 147.048 32.2675 147 31.2329C146.951 30.1983 147.209 29.2181 147.691 28.3825C148.362 27.2201 149.471 26.3342 150.805 25.9552C151.191 25.8442 151.596 25.775 152.015 25.7562C152.39 25.7394 152.759 25.7604 153.116 25.819H153.118C155.521 26.2086 157.41 28.2233 157.53 30.7386C157.667 33.6267 155.422 36.0792 152.515 36.2153Z" fill="black"/>
<path d="M49.5707 20.933L54.9097 26.1033L47.8877 28.7575" stroke="black" stroke-width="2" stroke-linecap="round" stroke-linejoin="round"/>
</g>
<defs>
<clipPath id="clip0_1698_2368">
<rect width="209" height="113" fill="white"/>
</clipPath>
</defs>
</svg>
