<svg width="18" height="18" viewBox="0 0 18 18" fill="none" xmlns="http://www.w3.org/2000/svg">
<g clip-path="url(#clip0_1787_3231)">
<path fill-rule="evenodd" clip-rule="evenodd" d="M9.27907 3.54506L1.7274 11.0967L0.697404 14.9384L0.019904 17.4692C0.0010859 17.5399 0.00117983 17.6143 0.0201764 17.685C0.039173 17.7557 0.0764051 17.8201 0.128142 17.8718C0.179879 17.9236 0.244305 17.9608 0.314963 17.9798C0.385621 17.9988 0.460031 17.9989 0.530737 17.9801L3.0599 17.3017L6.9024 16.2717L14.4549 8.72006L9.27907 3.54506ZM17.5774 4.42006L13.5807 0.422557C13.5034 0.345102 13.4116 0.283654 13.3105 0.241728C13.2094 0.199803 13.101 0.178223 12.9916 0.178223C12.8821 0.178223 12.7738 0.199803 12.6727 0.241728C12.5716 0.283654 12.4797 0.345102 12.4024 0.422557L10.3399 2.48422L15.5157 7.66006L17.5774 5.59756C17.6549 5.52023 17.7163 5.4284 17.7582 5.3273C17.8002 5.22621 17.8217 5.11784 17.8217 5.00839C17.8217 4.89895 17.8002 4.79058 17.7582 4.68948C17.7163 4.58838 17.6549 4.49738 17.5774 4.42006Z" fill="#8B95A1"/>
</g>
<defs>
<clipPath id="clip0_1787_3231">
<rect width="18" height="18" fill="white"/>
</clipPath>
</defs>
</svg>
