<svg width="117" height="117" viewBox="0 0 117 117" fill="none" xmlns="http://www.w3.org/2000/svg">
<path fill-rule="evenodd" clip-rule="evenodd" d="M40.6538 15.9798L40.6538 15.9798C41.7671 9.81207 47.6695 5.71463 53.8373 6.82789C60.005 7.94115 64.1025 13.8436 62.9892 20.0113L62.9892 20.0113L60.6631 32.8987L66.2434 33.906L68.5696 21.0186L68.5696 21.0185C69.6829 14.8508 75.5853 10.7534 81.753 11.8666C87.9208 12.9799 92.0182 18.8823 90.905 25.0501L88.5788 37.9375L101.332 40.2395C101.385 40.2482 101.438 40.2574 101.491 40.2669C107.658 41.3802 111.756 47.2826 110.643 53.4503C109.529 59.6181 103.627 63.7156 97.4591 62.6023L97.459 62.6034L84.5473 60.2729L83.5401 65.8532L96.302 68.1567C96.3519 68.165 96.4019 68.1737 96.4519 68.1827C102.62 69.296 106.717 75.1984 105.604 81.3662C104.491 87.534 98.5881 91.6314 92.4204 90.5182L92.4203 90.5192L79.5086 88.1886L77.1737 101.124L77.1582 101.21L77.1579 101.21C76.0057 107.33 70.1294 111.384 63.9903 110.276C57.8511 109.168 53.7631 103.315 54.8231 97.1788L54.8228 97.1787L54.8383 97.0929L57.1732 84.1571L51.5929 83.1499L49.258 96.0857L49.2425 96.1715L49.2422 96.1714C48.0899 102.291 42.2137 106.346 36.0745 105.238C29.9354 104.13 25.8474 98.2766 26.9074 92.14L26.9071 92.14L26.9226 92.0542L29.2574 79.1184L16.2601 76.7724L16.2603 76.7711C10.1404 75.6189 6.08598 69.7426 7.19408 63.6035C8.30734 57.4357 14.2098 53.3382 20.3775 54.4515C20.4274 54.4605 20.4772 54.4698 20.5268 54.4795L33.2889 56.783L34.2962 51.2026L21.2988 48.8567L21.2991 48.8552C15.1791 47.703 11.1247 41.8267 12.2328 35.6876C13.3461 29.5198 19.2485 25.4224 25.4163 26.5356C25.469 26.5451 25.5215 26.555 25.5739 26.5652L38.3277 28.8672L40.6538 15.9798ZM61.2266 61.7003L61.2047 61.8217L60.783 61.7456C59.991 61.8075 59.1781 61.7699 58.3597 61.6222C57.5412 61.4744 56.7665 61.2255 56.0461 60.8906L55.6244 60.8145L55.6463 60.693C52.0836 58.826 49.9808 54.8037 50.733 50.636L50.8858 49.7899C50.987 49.2292 51.5235 48.8567 52.0843 48.9579L68.6666 51.951C69.2273 52.0522 69.5998 52.5888 69.4986 53.1495L69.3459 53.9955C68.5936 58.1633 65.2172 61.1966 61.2266 61.7003Z" fill="#9358F2"/>
<ellipse cx="56.5742" cy="36.571" rx="7.56544" ry="7.56544" transform="rotate(10.7633 56.5742 36.571)" fill="#FAF7FF"/>
<ellipse cx="68.8872" cy="38.9117" rx="7.56544" ry="7.56544" transform="rotate(10.7633 68.8872 38.9117)" fill="#FAF7FF"/>
<circle cx="68.8873" cy="38.9118" r="4.88928" transform="rotate(10.7633 68.8873 38.9118)" fill="black"/>
<circle cx="56.5743" cy="36.5712" r="4.88928" transform="rotate(10.7633 56.5743 36.5712)" fill="black"/>
</svg>
