<svg width="121" height="149" viewBox="0 0 121 149" fill="none" xmlns="http://www.w3.org/2000/svg">
<g clip-path="url(#clip0_1857_6691)">
<path d="M7.65966 2.85891L19.2921 18.1193C19.6579 18.5992 19.426 19.2951 18.8494 19.45L14.2632 20.6823C13.8158 20.8025 13.5528 21.2644 13.6743 21.7165L16.7504 33.1648C16.9897 34.0553 15.8437 34.6289 15.2812 33.9012L4.33453 19.7412C3.96331 19.2629 4.19647 18.5608 4.77581 18.4051L8.98478 17.2742C9.43208 17.154 9.69511 16.692 9.57364 16.24L6.18829 3.58712C5.94829 2.69391 7.10039 2.12156 7.66236 2.85818L7.65966 2.85891Z" fill="#9258F1"/>
</g>
<g clip-path="url(#clip1_1857_6691)">
<path d="M96.1188 33.0017L109.459 19.2088C109.878 18.7752 109.729 18.0569 109.175 17.8354L104.764 16.0744C104.334 15.9027 104.127 15.4131 104.301 14.9784L108.697 3.9692C109.039 3.11287 107.968 2.40896 107.324 3.0658L94.794 15.8461C94.3693 16.2777 94.5186 17.0023 95.0757 17.2247L99.1232 18.8409C99.5534 19.0126 99.7605 19.5022 99.5869 19.9369L94.7428 32.1061C94.3999 32.9651 95.477 33.6684 96.1214 33.0027L96.1188 33.0017Z" fill="#9258F1"/>
</g>
<g clip-path="url(#clip2_1857_6691)">
<path d="M56.6028 72.5183C56.5536 72.7374 55.323 77.8989 49.5767 80.2287C49.459 80.2747 49.3391 80.2966 49.2214 80.2966C48.8383 80.2966 48.4767 80.0621 48.3268 79.6742C48.1299 79.1679 48.3718 78.5937 48.8662 78.3942C53.6858 76.4414 54.7173 72.115 54.7259 72.0734C54.8457 71.5408 55.3637 71.212 55.8816 71.3348C56.3995 71.4575 56.7227 71.9879 56.6028 72.5183Z" fill="#9258F1"/>
<path d="M71.5175 79.6742C71.3677 80.0621 71.006 80.2966 70.6229 80.2966C70.5052 80.2966 70.3854 80.2747 70.2676 80.2287C64.5213 77.8989 63.2907 72.7375 63.2415 72.5183C63.1217 71.9879 63.4448 71.4575 63.9628 71.3348C64.4785 71.212 64.9964 71.5408 65.1163 72.069C65.1612 72.2553 66.2035 76.459 70.9782 78.3942C71.4725 78.5937 71.7144 79.1679 71.5175 79.6742Z" fill="#9258F1"/>
<path d="M104.159 104.072H88.8099V97.519V97.5277C89.0261 97.4971 104.253 95.3273 110.147 88.1955C111.493 86.5693 112.255 84.5179 112.388 82.3897C112.681 77.6688 111.609 66.7038 98.0126 55.651C95.774 53.7004 92.8719 52.5257 89.7045 52.5257C89.1374 52.5257 88.5788 52.5629 88.033 52.6353C86.2353 47.5966 81.512 44 75.969 44C68.8787 44 63.1281 49.8869 63.1281 57.1502V68.2489C64.3073 67.6199 65.6449 67.267 67.0638 67.267C67.3142 67.267 67.5625 67.278 67.8086 67.3021H67.8108C69.9616 67.4906 71.8813 68.4944 73.281 70.011C73.6234 70.3792 73.9337 70.7803 74.2098 71.2055C75.1044 72.5907 75.6245 74.2498 75.6245 76.0338C75.6245 80.8753 71.7914 84.8006 67.0638 84.8006C64.0805 84.8006 61.4545 83.2379 59.9222 80.8687C58.3898 83.2379 55.7638 84.8006 52.7805 84.8006C48.0529 84.8006 44.2199 80.8753 44.2199 76.0338C44.2199 74.2498 44.7399 72.5907 45.6345 71.2055C45.9106 70.7803 46.2209 70.3792 46.5633 70.011C47.963 68.4922 49.887 67.4884 52.0378 67.2999C52.284 67.278 52.5301 67.267 52.7805 67.267C54.1994 67.267 55.537 67.6199 56.7162 68.2489V57.1502C56.7162 49.8869 50.9678 44 43.8753 44C38.4008 44 33.7288 47.5067 31.8819 52.449C31.8605 52.5038 31.8391 52.5586 31.8198 52.6134C31.3319 52.5564 30.8354 52.5257 30.3324 52.5257C27.165 52.5257 24.263 53.7004 22.0244 55.6489H22.0222C8.42583 66.7038 7.35362 77.6688 7.64682 82.3897C7.77951 84.5179 8.5414 86.5693 9.88756 88.1955C15.8243 95.3777 31.0344 97.4971 31.0344 97.4971V104.072H16.8409C9.74845 104.072 4 109.959 4 117.222C4 124.486 9.74845 130.372 16.8409 130.372H15.5975L30.1141 137.57C53.5509 148.32 56.6285 130.372 56.6285 130.372H63.1281C63.1281 130.372 66.2056 148.32 89.6424 137.57L104.159 130.372C111.249 130.372 117 124.486 117 117.222C117 109.959 111.249 104.072 104.159 104.072ZM50.9357 104.072C49.9876 104.072 49.2214 103.288 49.2214 102.317V99.6888C49.2214 94.8473 53.0544 90.922 57.782 90.922H62.0623C66.7899 90.922 70.6229 94.8473 70.6229 99.6888V102.319C70.6229 103.288 69.8567 104.072 68.9108 104.072H50.9357Z" fill="#9258F1"/>
<path d="M56.6028 72.5183C56.5536 72.7374 55.323 77.8989 49.5767 80.2287C49.459 80.2747 49.3391 80.2966 49.2214 80.2966C48.8383 80.2966 48.4767 80.0621 48.3268 79.6742C48.1299 79.1679 48.3718 78.5937 48.8662 78.3942C53.6858 76.4414 54.7173 72.115 54.7259 72.0734C54.8457 71.5408 55.3637 71.212 55.8816 71.3348C56.3995 71.4575 56.7227 71.9879 56.6028 72.5183Z" fill="white"/>
<path d="M59.9273 71.2058H59.9178C59.9178 71.2058 59.9202 71.2011 59.9226 71.1987C59.9249 71.2011 59.9249 71.2035 59.9273 71.2058Z" fill="white"/>
<path d="M59.9226 71.1987C59.9226 71.1987 59.9249 71.2035 59.9273 71.2058H59.9178C59.9178 71.2058 59.9202 71.2011 59.9226 71.1987Z" fill="white"/>
<path d="M71.5175 79.6742C71.3677 80.0621 71.006 80.2966 70.6229 80.2966C70.5052 80.2966 70.3854 80.2747 70.2676 80.2287C64.5213 77.8989 63.2907 72.7375 63.2415 72.5183C63.1217 71.9879 63.4448 71.4575 63.9628 71.3348C64.4785 71.212 64.9964 71.5408 65.1163 72.069C65.1612 72.2553 66.2035 76.459 70.9782 78.3942C71.4725 78.5937 71.7144 79.1679 71.5175 79.6742Z" fill="white"/>
<path d="M56.6028 72.5183C56.5536 72.7374 55.323 77.8989 49.5767 80.2287C49.459 80.2747 49.3391 80.2966 49.2214 80.2966C48.8383 80.2966 48.4767 80.0621 48.3268 79.6742C48.1299 79.1679 48.3718 78.5937 48.8662 78.3942C53.6858 76.4414 54.7173 72.115 54.7259 72.0734C54.8457 71.5408 55.3637 71.212 55.8816 71.3348C56.3995 71.4575 56.7227 71.9879 56.6028 72.5183Z" fill="black"/>
<path d="M71.5175 79.6742C71.3677 80.0621 71.006 80.2966 70.6229 80.2966C70.5052 80.2966 70.3854 80.2747 70.2676 80.2287C64.5213 77.8989 63.2907 72.7375 63.2415 72.5183C63.1217 71.9879 63.4448 71.4575 63.9628 71.3348C64.4785 71.212 64.9964 71.5408 65.1163 72.069C65.1612 72.2553 66.2035 76.459 70.9782 78.3942C71.4725 78.5937 71.7144 79.1679 71.5175 79.6742Z" fill="black"/>
<path d="M88.8123 97.519V97.5285H88.8099V97.519H88.8123Z" fill="#9258F1"/>
<path d="M31.8541 52.4448C31.8541 52.4448 32.1173 52.4777 32.5625 52.5785C39.9289 54.2464 44.2648 62.1146 41.8935 69.4502C41.0952 71.9224 39.5886 74.6072 36.8278 76.9392" stroke="#7247C4" stroke-width="3" stroke-linecap="round" stroke-linejoin="round"/>
<path d="M87.7677 52.6636C87.7677 52.6636 87.5044 52.6964 87.0593 52.7973C79.6929 54.4651 75.3569 62.3333 77.7282 69.6689C78.5265 72.1412 80.0332 74.826 82.794 77.1579" stroke="#7247C4" stroke-width="3" stroke-linecap="round" stroke-linejoin="round"/>
<path d="M102.73 130.351H87.3812" stroke="#7247C4" stroke-width="3" stroke-linecap="round" stroke-linejoin="round"/>
<path d="M17.0577 130.351H32.4069" stroke="#7247C4" stroke-width="3" stroke-linecap="round" stroke-linejoin="round"/>
</g>
<defs>
<clipPath id="clip0_1857_6691">
<rect width="15" height="33" fill="white" transform="matrix(-0.965745 0.259493 0.259493 0.965745 14.6101 0.448242)"/>
</clipPath>
<clipPath id="clip1_1857_6691">
<rect width="15" height="33" fill="white" transform="translate(102.739 36.2095) rotate(-158.233)"/>
</clipPath>
<clipPath id="clip2_1857_6691">
<rect width="113" height="97" fill="white" transform="translate(4 44)"/>
</clipPath>
</defs>
</svg>
