<svg width="136" height="109" viewBox="0 0 136 109" fill="none" xmlns="http://www.w3.org/2000/svg">
<g clip-path="url(#clip0_2293_2134)">
<path d="M38.4622 70.5031V70.5185C38.4158 70.5185 38.3618 70.5185 38.3077 70.5185C38.2845 70.5185 38.2536 70.5185 38.2227 70.5108C38.1919 70.5108 38.1687 70.5108 38.1378 70.5031H38.4622Z" fill="#8F89FF"/>
<path d="M40.393 69.9615C40.3389 70.0002 40.2771 70.0389 40.2153 70.0698L40.393 69.9615Z" fill="#8F89FF"/>
<path d="M48.5257 87.0515L47.8074 89.3106L45.2123 83.7635L44.3087 81.8216C44.2006 81.8371 44.0925 81.8603 43.9843 81.8525C43.9689 81.8603 43.9534 81.8603 43.938 81.8603C43.4978 81.8758 43.0653 81.8139 42.625 81.6437C40.895 80.9938 40.0223 79.0442 40.6788 77.3035C41.3352 75.5627 43.2738 74.6963 45.0115 75.3539C46.7493 76.0115 47.622 77.9611 46.9578 79.6941C46.7725 80.1815 46.479 80.6147 46.116 80.9474C46.0696 80.9938 46.0156 81.0402 45.9538 81.0866L46.8033 83.044L48.5257 87.0515Z" fill="#8F89FF"/>
<path d="M135.915 46.3651C135.992 49.7227 135.475 55.9352 131.945 64.4608C130.54 67.8572 128.794 71.2844 126.717 74.7349C119.619 86.5331 106.821 93.7049 93.0661 93.6894H92.8266L87.9532 80.0963C87.5362 78.9359 86.8024 77.9379 85.8679 77.2261C96.8659 66.4336 101.77 58.1014 103.948 52.8251C105.076 50.0941 105.439 48.276 105.555 47.425C105.593 47.131 105.84 45.0266 105.84 45.0266C105.972 40.4234 105.114 36.7872 103.122 34.2032C101.755 32.447 100.187 31.6115 99.8935 31.4645C99.8857 31.4645 99.878 31.4568 99.8703 31.4568C95.3444 29.6309 91.699 30.0874 87.652 32.9731C83.8444 35.6887 81.4347 39.4099 81.1026 39.936C78.4304 44.7559 73.5106 47.7499 68.0039 47.7499C62.4971 47.7499 57.5697 44.7559 54.8974 39.936C54.573 39.4099 52.1556 35.6887 48.348 32.9731C44.3087 30.0874 40.6556 29.6309 36.1374 31.4568C36.122 31.4568 36.1143 31.4645 36.1065 31.4645C35.8131 31.6115 34.2452 32.447 32.8859 34.2032C30.8933 36.7872 29.7425 40.4002 30.0824 45.0808C30.1287 45.7075 30.1828 46.3109 30.3372 47.0149C30.4453 47.6725 30.9628 51.5795 34.67 58.0395C34.8631 58.3722 35.0639 58.7126 35.2724 59.0607L25.3711 63.517C23.085 64.5459 22.0578 67.2382 23.0927 69.536L25.1471 74.1237C25.4175 74.7195 25.7959 75.2301 26.2516 75.6401C26.267 76.7696 26.5065 77.9146 27.0007 79.0132L28.3369 81.9841C28.6767 82.7422 29.1092 83.4308 29.619 84.0188C29.619 84.0188 31.5421 87.33 37.0024 89.8212L46.5021 93.4264L46.4017 93.7513C37.8984 93.7359 29.7271 91.3453 22.7375 87.0515C15.7479 82.7654 9.92448 76.5762 6.11688 68.9557C0.710551 58.1323 5.07058e-06 50.2643 0.092685 46.3883C-0.834114 29.8166 5.52218 19.1325 11.0753 13.0438C16.806 6.7695 22.9923 3.99982 24.8846 3.24937C39.4971 -2.60718 54.5344 -0.502844 67.2393 9.19877C67.4941 9.39218 67.749 9.59333 68.0039 9.79448C68.251 9.59333 68.5059 9.39218 68.7685 9.19877C81.4733 -0.502844 96.5107 -2.60718 111.115 3.24937C113.008 3.99982 119.194 6.7695 124.925 13.0438C130.486 19.1247 136.834 29.8089 135.915 46.3651Z" fill="#8F89FF"/>
<path d="M59.57 32.4393C65.1492 32.4393 69.6721 27.9087 69.6721 22.3199C69.6721 16.7311 65.1492 12.2005 59.57 12.2005C53.9908 12.2005 49.4679 16.7311 49.4679 22.3199C49.4679 27.9087 53.9908 32.4393 59.57 32.4393Z" fill="white"/>
<path d="M76.43 32.4393C82.0092 32.4393 86.5321 27.9087 86.5321 22.3199C86.5321 16.7311 82.0092 12.2005 76.43 12.2005C70.8507 12.2005 66.3279 16.7311 66.3279 22.3199C66.3279 27.9087 70.8507 32.4393 76.43 32.4393Z" fill="white"/>
<path d="M59.57 32.447C63.0592 32.447 65.8877 29.6136 65.8877 26.1185C65.8877 22.6234 63.0592 19.79 59.57 19.79C56.0808 19.79 53.2523 22.6234 53.2523 26.1185C53.2523 29.6136 56.0808 32.447 59.57 32.447Z" fill="black"/>
<path d="M76.43 32.447C79.9192 32.447 82.7477 29.6136 82.7477 26.1185C82.7477 22.6234 79.9192 19.79 76.43 19.79C72.9409 19.79 70.1123 22.6234 70.1123 26.1185C70.1123 29.6136 72.9409 32.447 76.43 32.447Z" fill="black"/>
<path d="M38.2227 70.503C38.2227 70.503 38.2845 70.5107 38.3077 70.5107C38.3617 70.5107 38.4158 70.5107 38.4622 70.5107V70.4952H38.2227V70.503ZM40.2153 70.062C40.2771 70.0388 40.3389 70.0001 40.393 69.9614L40.2153 70.062Z" fill="#9258F1"/>
<path d="M38.4621 70.503V70.5185C38.4158 70.5185 38.3617 70.5185 38.3077 70.5185C38.2845 70.5185 38.2536 70.5185 38.2227 70.5107C38.1918 70.5107 38.1687 70.5107 38.1378 70.503H38.4621Z" fill="#9258F1"/>
<path d="M40.393 69.9614C40.3389 70.0001 40.2771 70.0388 40.2153 70.0697L40.393 69.9614Z" fill="#9258F1"/>
<path d="M40.393 69.9614C40.3389 70.0001 40.2771 70.0388 40.2153 70.0697L40.393 69.9614Z" fill="#9258F1"/>
<path d="M38.4621 70.503V70.5185C38.4158 70.5185 38.3617 70.5185 38.3077 70.5185C38.2845 70.5185 38.2536 70.5185 38.2227 70.5107C38.1918 70.5107 38.1687 70.5107 38.1378 70.503H38.4621Z" fill="#9258F1"/>
<path d="M52.9588 63.1146C50.5337 61.1341 47.12 60.577 44.077 61.9464L38.7942 64.3293L31.2949 67.7024C28.082 69.1491 26.1975 72.3288 26.2516 75.6401C25.7959 75.23 25.4175 74.7194 25.1471 74.1237L23.0927 69.5359C22.0578 67.2382 23.085 64.5459 25.3711 63.5169L35.2724 59.0607L44.5172 54.8984C46.8033 53.8695 49.4988 54.8907 50.526 57.1884L52.5881 61.7762C52.7812 62.2094 52.9048 62.6659 52.9588 63.1146Z" fill="#E8DAFF"/>
<path d="M38.4621 70.503V70.5185C38.4158 70.5185 38.3617 70.5185 38.3077 70.5185C38.2845 70.5185 38.2536 70.5185 38.2227 70.5107C38.1918 70.5107 38.1687 70.5107 38.1378 70.503H38.4621Z" fill="#E8DAFF"/>
<path d="M40.393 69.9614C40.3389 70.0001 40.2771 70.0388 40.2153 70.0697L40.393 69.9614Z" fill="#E8DAFF"/>
<path d="M75.426 81.3496C75.426 81.837 75.2329 82.2703 74.9162 82.5875C74.5996 82.9046 74.1671 83.0981 73.6805 83.0981H60.1106C59.1452 83.0981 58.3651 82.3167 58.3651 81.3496C58.3651 80.8699 58.5582 80.4367 58.8749 80.1195C59.1915 79.8023 59.6318 79.6089 60.1106 79.6089H73.6805C74.6459 79.6089 75.426 80.3903 75.426 81.3496Z" fill="#E8DAFF"/>
<path d="M93.6299 95.9252L92.8266 93.6894L87.9532 80.0963C87.5361 78.9358 86.8024 77.9378 85.8679 77.226C84.7712 76.3673 83.4042 75.8799 81.9599 75.8799H57.7087C57.6237 77.2802 57.3688 78.99 56.7664 80.9318L56.0791 82.7499L52.6808 91.7243C52.3023 92.7068 50.9662 92.7687 50.5646 91.8094L48.5256 87.0514L47.8074 89.3105L49.2516 92.3896C49.6841 93.3258 48.7573 94.2928 47.7765 93.9137L46.5021 93.4263L46.4017 93.7513L45.6448 96.1573C44.3396 100.265 47.4058 104.459 51.7154 104.459H63.8255L68.1429 100.521C69.0156 99.7316 70.3363 99.7316 71.209 100.521L73.1167 102.261L75.5264 104.459H87.6366C92.0466 104.459 95.1205 100.08 93.6299 95.9252ZM58.8749 80.1195C59.1916 79.8023 59.6318 79.6089 60.1106 79.6089H73.6805C74.6459 79.6089 75.426 80.3903 75.426 81.3496C75.426 81.837 75.2329 82.2703 74.9162 82.5875C74.5996 82.9047 74.1671 83.0981 73.6805 83.0981H60.1106C59.1452 83.0981 58.3652 82.3167 58.3652 81.3496C58.3652 80.8699 58.5582 80.4367 58.8749 80.1195ZM56.4807 87.1907C56.7973 86.8735 57.2376 86.6801 57.7164 86.6801H84.2074C85.1728 86.6801 85.9529 87.4615 85.9529 88.4208C85.9529 88.9082 85.7598 89.3414 85.4431 89.6586C85.1265 89.9758 84.6862 90.1693 84.2074 90.1693H57.7164C56.751 90.1693 55.9709 89.3879 55.9709 88.4208C55.9709 87.9411 56.164 87.5079 56.4807 87.1907ZM87.2581 96.7298C86.9415 97.047 86.5089 97.2404 86.0224 97.2404H55.9864C55.021 97.2404 54.2409 96.4591 54.2409 95.492C54.2409 95.0123 54.434 94.5791 54.7506 94.2619C55.0673 93.9447 55.5075 93.7513 55.9864 93.7513H86.0224C86.9878 93.7513 87.7678 94.5327 87.7678 95.492C87.7678 95.9794 87.5748 96.4126 87.2581 96.7298Z" fill="#E8DAFF"/>
<path d="M57.392 71.6867V71.6712C57.2916 70.8434 57.0676 70.0233 56.7046 69.2187L55.3685 66.2479C54.8047 64.9791 53.9629 63.9192 52.9588 63.1146C50.5337 61.134 47.12 60.577 44.077 61.9464L38.7943 64.3292L31.2949 67.7024C28.082 69.1491 26.1975 72.3288 26.2516 75.64C26.267 76.7696 26.5064 77.9146 27.0007 79.0132L28.3369 81.984C28.6767 82.7422 29.1092 83.4307 29.6189 84.0187C29.6189 84.0187 31.5421 87.3299 37.0024 89.8211L46.5021 93.4263L47.7765 93.9137C48.7573 94.2928 49.6841 93.3258 49.2516 92.3896L47.8074 89.3182L45.2123 83.7634L44.3087 81.8215C44.2006 81.837 44.0925 81.8602 43.9843 81.8525C43.9689 81.8602 43.9534 81.8602 43.938 81.8602C43.4978 81.8757 43.0652 81.8138 42.625 81.6436C40.895 80.9937 40.0223 79.0441 40.6787 77.3034C41.3352 75.5627 43.2738 74.6962 45.0115 75.3538C46.7493 76.0114 47.622 77.961 46.9578 79.694C46.7724 80.1814 46.479 80.6146 46.116 80.9473C46.0696 80.9937 46.0156 81.0401 45.9538 81.0866L46.8033 83.0439L48.5256 87.0514L50.5646 91.8094C50.9662 92.7687 52.3023 92.7068 52.6808 91.7243L56.079 82.7499L56.7664 80.9318C57.3688 78.99 57.6237 77.2802 57.7087 75.8799C57.84 73.6131 57.5079 72.1277 57.392 71.6867ZM38.4621 70.5185C38.4158 70.5185 38.3617 70.5185 38.3077 70.5185C38.2845 70.5185 38.2536 70.5185 38.2227 70.5107C38.1918 70.5107 38.1687 70.5107 38.1378 70.503H38.4621V70.5262V70.5185ZM40.2153 70.0697L40.393 69.9614C40.3389 70.0001 40.2771 70.0388 40.2153 70.0697Z" fill="#9258F1"/>
<path d="M38.4621 70.503V70.5185C38.4158 70.5185 38.3617 70.5185 38.3077 70.5185C38.2845 70.5185 38.2536 70.5185 38.2227 70.5107C38.1918 70.5107 38.1687 70.5107 38.1378 70.503H38.4621Z" fill="#9258F1"/>
<path d="M40.393 69.9614C40.3389 70.0001 40.2771 70.0388 40.2153 70.0697L40.393 69.9614Z" fill="#9258F1"/>
<path d="M75.426 81.3496C75.426 81.837 75.2329 82.2703 74.9162 82.5875C74.5996 82.9046 74.1671 83.0981 73.6805 83.0981H60.1106C59.1452 83.0981 58.3651 82.3167 58.3651 81.3496C58.3651 80.8699 58.5582 80.4367 58.8749 80.1195C59.1915 79.8023 59.6318 79.6089 60.1106 79.6089H73.6805C74.6459 79.6089 75.426 80.3903 75.426 81.3496Z" fill="#9258F1"/>
<path d="M85.9529 88.4208C85.9529 88.9082 85.7598 89.3415 85.4431 89.6587C85.1265 89.9759 84.6862 90.1693 84.2074 90.1693H57.7164C56.751 90.1693 55.9709 89.3879 55.9709 88.4208C55.9709 87.9412 56.164 87.5079 56.4807 87.1907C56.7973 86.8735 57.2375 86.6801 57.7164 86.6801H84.2074C85.1728 86.6801 85.9529 87.4615 85.9529 88.4208Z" fill="#9258F1"/>
<path d="M87.7678 95.492C87.7678 95.9794 87.5748 96.4126 87.2581 96.7298C86.9415 97.047 86.5089 97.2405 86.0224 97.2405H55.9864C55.021 97.2405 54.2409 96.4591 54.2409 95.492C54.2409 95.0123 54.434 94.5791 54.7506 94.2619C55.0673 93.9447 55.5075 93.7513 55.9864 93.7513H86.0224C86.9878 93.7513 87.7678 94.5327 87.7678 95.492Z" fill="#9258F1"/>
<path d="M74.6305 109H64.7215C64.5516 109 64.3816 108.985 64.2272 108.946C64.0727 108.915 63.926 108.868 63.7869 108.807C63.7329 108.783 63.6788 108.752 63.6247 108.721C63.5707 108.698 63.5243 108.667 63.4703 108.629C63.2926 108.513 63.1382 108.373 63.0069 108.211C62.9528 108.157 62.9065 108.095 62.8679 108.033C62.7211 107.824 62.613 107.592 62.5435 107.344C62.528 107.298 62.5126 107.252 62.5049 107.197C62.4663 107.035 62.4508 106.872 62.4508 106.702C62.4508 106.602 62.4508 106.501 62.474 106.401C62.4894 106.292 62.5126 106.192 62.5435 106.083C62.5435 106.052 62.5667 106.021 62.5744 105.99C62.5975 105.913 62.6284 105.836 62.6671 105.758C62.6902 105.696 62.7211 105.642 62.752 105.588C62.8601 105.387 63.0069 105.209 63.1922 105.039L63.8256 104.459L68.1429 100.521C69.0156 99.7316 70.3363 99.7316 71.2091 100.521L73.1167 102.261L75.5264 104.459L76.1597 105.039C77.6966 106.439 76.7003 109 74.6305 109Z" fill="#9258F1"/>
<path d="M92.8266 93.6894H92.8035" stroke="black" stroke-miterlimit="10"/>
</g>
<defs>
<clipPath id="clip0_2293_2134">
<rect width="136" height="109" fill="white"/>
</clipPath>
</defs>
</svg>
