<svg width="110" height="97" viewBox="0 0 110 97" fill="none" xmlns="http://www.w3.org/2000/svg">
<path fill-rule="evenodd" clip-rule="evenodd" d="M89.5798 2.64804C89.6857 2.6892 89.8055 2.73702 89.9383 2.79183C90.2049 2.90185 90.5253 3.04066 90.8913 3.21114C91.621 3.55107 92.5449 4.02308 93.5926 4.6522C95.6728 5.9015 98.3463 7.83406 100.947 10.6755C106.307 16.5317 110.612 25.4708 109.928 37.7993C109.932 37.9954 109.934 38.2031 109.932 38.4225C109.924 39.3912 109.854 40.5789 109.665 41.9696C109.286 44.7619 108.436 48.3045 106.706 52.4755C103.24 60.8316 96.3781 71.3921 83.2213 83.456C77.9295 88.3083 69.7061 87.9519 64.8538 82.6601C60.0015 77.3683 60.3578 69.1448 65.6497 64.2926C76.5582 54.2901 80.9344 46.7459 82.6898 42.5139C83.5704 40.3909 83.8271 39.0186 83.9017 38.4695C83.9129 38.3868 83.9203 38.3206 83.9251 38.2714C83.9011 37.7576 83.9076 37.2427 83.9447 36.7292C84.3249 31.4611 82.6582 29.2027 81.768 28.2301C81.1858 27.594 80.595 27.1748 80.2068 26.9417C80.0929 26.8733 80.007 26.8273 79.9581 26.8022C76.0784 25.2448 73.4252 26.1798 70.7853 28.1907C69.3372 29.2938 68.1217 30.6152 67.2482 31.725C66.8269 32.2602 66.5246 32.6958 66.3517 32.9567C66.2724 33.0763 66.223 33.1553 66.2043 33.1855C63.87 37.1531 59.6082 39.5934 54.9986 39.5929C50.389 39.5924 46.1277 37.1513 43.7942 33.1833C43.7756 33.1531 43.7262 33.0742 43.647 32.9548C43.4743 32.694 43.1722 32.2585 42.7512 31.7234C41.8781 30.614 40.6633 29.293 39.2158 28.1902C36.5782 26.1808 33.9248 25.2443 30.0416 26.8022C29.9927 26.8274 29.9068 26.8733 29.793 26.9417C29.4048 27.1748 28.814 27.594 28.2318 28.2301C27.3416 29.2027 25.6749 31.4611 26.0551 36.7292C26.0921 37.2419 26.0986 37.7561 26.0748 38.2691C26.0841 38.365 26.1033 38.5247 26.1416 38.7466C26.2913 39.6141 26.7558 41.5583 28.2042 44.4659C31.1059 50.2904 38.1162 60.2835 54.9705 73.1245C60.6815 77.4756 61.7839 85.6326 57.4328 91.3436C53.0816 97.0546 44.9246 98.1571 39.2136 93.8059C20.0088 79.174 10.0174 66.267 4.93225 56.0596C2.38732 50.9512 1.11206 46.5965 0.520451 43.1691C0.225967 41.4631 0.10521 40.0118 0.0751679 38.839C0.0655339 38.4629 0.0652554 38.1164 0.0714496 37.8004C-0.612427 25.4713 3.69241 16.5319 9.05279 10.6755C11.6535 7.83406 14.327 5.9015 16.4073 4.6522C17.4549 4.02308 18.3788 3.55107 19.1085 3.21114C19.4745 3.04066 19.7949 2.90185 20.0615 2.79183C20.1946 2.73688 20.3147 2.68896 20.4207 2.64773C35.1717 -3.24422 47.3892 1.73137 54.9722 7.50846C54.9818 7.51575 54.9913 7.52304 55.0009 7.53032C55.0106 7.52288 55.0204 7.51543 55.0302 7.50798C62.6123 1.73223 74.8302 -3.24485 89.5798 2.64804ZM29.6584 26.9501C29.6584 26.9501 29.6584 26.9501 29.6584 26.9501L29.6586 26.95C29.6585 26.95 29.6585 26.9501 29.6584 26.9501Z" fill="#8F89FF"/>
<path d="M56.4161 15.104C56.4161 19.6608 52.7221 23.3548 48.1653 23.3548C43.6085 23.3548 39.9144 19.6608 39.9144 15.104C39.9144 10.5472 43.6085 6.85315 48.1653 6.85315C52.7221 6.85315 56.4161 10.5472 56.4161 15.104Z" fill="#FAF7FF"/>
<path d="M70.0853 15.104C70.0853 19.6608 66.3913 23.3548 61.8345 23.3548C57.2776 23.3548 53.5836 19.6608 53.5836 15.104C53.5836 10.5472 57.2776 6.85315 61.8345 6.85315C66.3913 6.85315 70.0853 10.5472 70.0853 15.104Z" fill="#FAF7FF"/>
<path d="M64.2433 15.104C64.2433 18.0489 61.856 20.4362 58.9111 20.4362C55.9662 20.4362 53.5789 18.0489 53.5789 15.104C53.5789 12.1591 55.9662 9.77179 58.9111 9.77179C61.856 9.77179 64.2433 12.1591 64.2433 15.104Z" fill="black"/>
<path d="M50.5789 15.104C50.5789 18.0489 48.1916 20.4362 45.2467 20.4362C42.3017 20.4362 39.9144 18.0489 39.9144 15.104C39.9144 12.1591 42.3017 9.77179 45.2467 9.77179C48.1916 9.77179 50.5789 12.1591 50.5789 15.104Z" fill="black"/>
</svg>
