<svg width="118" height="189" viewBox="0 0 118 189" fill="none" xmlns="http://www.w3.org/2000/svg">
<path d="M61.6115 15.9028L61.6114 45.5723" stroke="#7247C4" stroke-width="3" stroke-linecap="round"/>
<path d="M79.4879 19.561L79.4879 41.9146" stroke="#7247C4" stroke-width="3" stroke-linecap="round"/>
<path d="M96.4496 2.41455L96.4496 70.0708" stroke="#7247C4" stroke-width="3" stroke-linecap="round"/>
<path d="M116.45 12.7769L116.45 48.699" stroke="#7247C4" stroke-width="3" stroke-linecap="round"/>
<g clip-path="url(#clip0_1857_6680)">
<path d="M69.2477 110.926C69.0965 111.312 68.7317 111.546 68.3452 111.546C68.2264 111.546 68.1055 111.524 67.9868 111.478C62.1896 109.156 60.9481 104.01 60.8985 103.792C60.7776 103.263 61.1036 102.734 61.6261 102.612C62.1464 102.49 62.6689 102.817 62.7898 103.344C62.8352 103.53 63.8867 107.72 68.7036 109.65C69.2023 109.849 69.4463 110.421 69.2477 110.926Z" fill="#9258F1"/>
<path d="M26.5192 102.485C26.0269 102.498 25.5562 102.522 25.105 102.557C25.5498 102.509 26.001 102.485 26.4587 102.485H26.5192Z" fill="#9258F1"/>
<path d="M57.5518 102.485C57.5518 102.485 57.5518 102.488 57.5518 102.49C57.5518 102.488 57.5497 102.485 57.5497 102.485H57.554H57.5518Z" fill="#9258F1"/>
<path d="M69.2477 110.926C69.0965 111.312 68.7317 111.546 68.3452 111.546C68.2264 111.546 68.1055 111.524 67.9868 111.478C62.1896 109.156 60.9481 104.01 60.8985 103.792C60.7776 103.263 61.1036 102.734 61.6261 102.612C62.1464 102.49 62.6689 102.817 62.7898 103.344C62.8352 103.53 63.8867 107.72 68.7036 109.65C69.2023 109.849 69.4463 110.421 69.2477 110.926Z" fill="#9258F1"/>
<path d="M15.1625 135.356C14.6205 135.286 14.0656 135.249 13.5043 135.249H15.1387L15.1625 135.356Z" fill="#9258F1"/>
<path d="M101.595 135.249C100.989 135.249 100.393 135.29 99.8075 135.373L99.8356 135.249H101.595Z" fill="#9258F1"/>
<path d="M71.9573 102.485C71.7111 102.11 71.4369 101.753 71.1368 101.421C69.5866 99.6997 67.367 98.6094 64.8949 98.5701C64.8495 98.5679 64.802 98.5679 64.7545 98.5679C63.0834 98.5679 61.5224 99.0486 60.201 99.881C59.1431 100.545 58.2384 101.434 57.5518 102.485C57.5518 102.485 57.5518 102.488 57.5518 102.49C57.5518 102.488 57.5497 102.485 57.5497 102.485C56.6213 101.067 55.2977 99.9422 53.7367 99.267C52.696 98.817 51.5517 98.5679 50.3469 98.5679C49.8503 98.5679 49.3667 98.6094 48.8939 98.6924C47.104 98.9983 45.5019 99.8613 44.2691 101.1H44.2669C43.8459 101.522 43.4724 101.985 43.1442 102.485C42.2395 103.866 41.7106 105.525 41.7106 107.308C41.7106 112.134 45.5775 116.047 50.3469 116.047C51.5517 116.047 52.696 115.798 53.7367 115.348C55.2999 114.673 56.6256 113.546 57.5518 112.125C58.2384 113.176 59.1452 114.068 60.2032 114.734C61.5246 115.567 63.0856 116.047 64.7567 116.047C69.5261 116.047 73.3931 112.134 73.3931 107.308C73.3931 105.525 72.8641 103.866 71.9594 102.485H71.9573ZM54.2009 103.792C54.1858 103.858 54.0627 104.375 53.7345 105.131C52.981 106.868 51.1544 109.86 47.1126 111.479C46.9939 111.524 46.873 111.546 46.7542 111.546C46.3677 111.546 46.0028 111.313 45.8517 110.926C45.6531 110.421 45.897 109.849 46.3958 109.65C51.2581 107.703 52.2988 103.39 52.3074 103.348C52.4283 102.818 52.9508 102.49 53.4733 102.612C53.5661 102.634 53.6547 102.669 53.7345 102.717C54.0994 102.925 54.3002 103.357 54.2009 103.792ZM69.2476 110.926C69.0965 111.313 68.7316 111.546 68.3451 111.546C68.2264 111.546 68.1055 111.524 67.9867 111.479C62.1895 109.156 60.9481 104.011 60.8984 103.792C60.7775 103.263 61.1035 102.735 61.626 102.612C62.1464 102.49 62.6689 102.818 62.7898 103.344C62.8351 103.53 63.8866 107.721 68.7035 109.65C69.2023 109.849 69.4463 110.421 69.2476 110.926Z" fill="white"/>
<path d="M69.2477 110.926C69.0965 111.312 68.7317 111.546 68.3452 111.546C68.2264 111.546 68.1055 111.524 67.9868 111.478C62.1896 109.156 60.9481 104.01 60.8985 103.792C60.7776 103.263 61.1036 102.734 61.6261 102.612C62.1464 102.49 62.6689 102.817 62.7898 103.344C62.8352 103.53 63.8867 107.72 68.7036 109.65C69.2023 109.849 69.4463 110.421 69.2477 110.926Z" fill="white"/>
<path d="M54.2009 103.792C54.1858 103.857 54.0628 104.375 53.7346 105.131C52.9811 106.868 51.1545 109.859 47.1126 111.478C46.9939 111.524 46.873 111.546 46.7542 111.546C46.3678 111.546 46.0029 111.312 45.8517 110.926C45.6531 110.421 45.8971 109.849 46.3958 109.65C51.2581 107.703 52.2988 103.39 52.3074 103.348C52.4283 102.817 52.9508 102.49 53.4733 102.612C53.5662 102.634 53.6547 102.669 53.7346 102.717C54.0995 102.924 54.3003 103.357 54.2009 103.792Z" fill="black"/>
<path d="M69.2477 110.926C69.0965 111.312 68.7317 111.546 68.3452 111.546C68.2264 111.546 68.1055 111.524 67.9868 111.478C62.1896 109.156 60.9481 104.01 60.8985 103.792C60.7776 103.263 61.1036 102.734 61.6261 102.612C62.1464 102.49 62.6689 102.817 62.7898 103.344C62.8352 103.53 63.8867 107.72 68.7036 109.65C69.2023 109.849 69.4463 110.421 69.2477 110.926Z" fill="black"/>
<path d="M101.595 135.248C100.988 135.248 100.393 135.29 99.8074 135.373L99.8355 135.248L103.411 118.936C104.907 112.097 101.073 105.437 94.7401 103.504C94.7293 103.499 94.7185 103.495 94.7077 103.493C93.0948 102.907 91.251 102.641 89.6856 102.527C89.5561 102.516 89.4309 102.51 89.3078 102.503C87.4747 102.392 86.1102 102.485 86.1102 102.485V88.4714C86.1102 81.2305 80.3109 75.3618 73.1556 75.3618C66.0004 75.3618 60.2011 81.2305 60.2011 88.4714V99.8811C61.5224 99.0486 63.0835 98.5679 64.7546 98.5679C64.8021 98.5679 64.8496 98.5679 64.8949 98.5701C67.3671 98.6094 69.5866 99.6997 71.1369 101.421C71.437 101.754 71.7112 102.11 71.9573 102.485C72.862 103.866 73.391 105.525 73.391 107.308C73.391 112.134 69.524 116.047 64.7546 116.047C63.0835 116.047 61.5224 115.567 60.2011 114.734C59.1431 114.068 58.2363 113.176 57.5497 112.125C56.6235 113.546 55.2978 114.673 53.7346 115.348C52.6939 115.798 51.5496 116.047 50.3448 116.047C45.5754 116.047 41.7085 112.134 41.7085 107.308C41.7085 105.525 42.2374 103.866 43.1421 102.485C43.4703 101.985 43.8438 101.522 44.2648 101.102H44.267C45.4998 99.8614 47.1019 98.9983 48.8918 98.6925C49.3646 98.6094 49.8482 98.5679 50.3448 98.5679C51.5496 98.5679 52.6939 98.817 53.7346 99.2671V88.4714C53.7346 81.2305 47.9331 75.3618 40.7801 75.3618C33.627 75.3618 27.8255 81.2305 27.8255 88.4714V102.485H27.7284C27.3117 102.477 26.9101 102.477 26.5193 102.485C26.027 102.499 25.5563 102.523 25.1051 102.558C25.0921 102.56 25.0813 102.56 25.0684 102.56C21.3504 102.861 19.0423 103.897 18.3968 104.225C18.3838 104.231 18.3709 104.238 18.3579 104.244C18.3471 104.251 18.3342 104.255 18.3234 104.262C18.3039 104.271 18.2867 104.281 18.2672 104.29C18.2629 104.295 18.2564 104.297 18.2521 104.299C18.2521 104.301 18.2478 104.301 18.2456 104.303C18.2348 104.308 18.2219 104.314 18.2111 104.321C18.2111 104.321 18.2111 104.321 18.2111 104.323C13.1135 106.927 10.2332 112.862 11.5654 118.936L15.1409 135.248L15.1646 135.356C14.6227 135.286 14.0678 135.248 13.5064 135.248C6.3512 135.248 0.55188 141.119 0.55188 148.358C0.55188 155.597 6.3512 161.468 13.5064 161.468H25.9385L27.9097 177.588C28.7259 184.261 35.1492 189.048 42.2569 188.281C49.3668 187.516 54.4665 181.486 53.6504 174.813L52.0181 161.468H61.9219L60.2896 174.813C59.4735 181.486 64.5754 187.516 71.6831 188.281C78.7909 189.048 85.2141 184.261 86.0303 177.588L88.0015 161.468H101.597C108.753 161.468 114.552 155.599 114.552 148.358C114.552 141.117 108.753 135.248 101.597 135.248H101.595ZM68.3452 133.501C68.3452 134.466 67.5722 135.248 66.6179 135.248H48.4837C47.5272 135.248 46.7543 134.466 46.7543 133.498V130.879C46.7543 130.127 46.8471 129.399 47.0242 128.705C47.8446 125.46 50.4593 122.943 53.7346 122.301C54.2701 122.194 54.825 122.139 55.3906 122.139H59.7088C59.8729 122.139 60.037 122.143 60.2011 122.154C64.0097 122.368 67.1598 125.084 68.0753 128.705C68.2523 129.399 68.3452 130.127 68.3452 130.879V133.501Z" fill="#9258F1"/>
<path d="M40.5404 144.152C42.4901 144.484 44.606 145.34 46.7543 147.067C46.7543 147.067 51.1372 150.042 52.016 161.378" stroke="#7247C4" stroke-width="3" stroke-linecap="round" stroke-linejoin="round"/>
<path d="M25.9362 161.378C25.9362 161.378 24.1723 155.699 26.7329 150.777" stroke="#7247C4" stroke-width="3" stroke-linecap="round" stroke-linejoin="round"/>
<path d="M61.8613 161.378C62.7401 150.043 67.123 147.067 67.123 147.067C69.5671 145.105 71.9702 144.264 74.1336 144.043" stroke="#7247C4" stroke-width="3" stroke-linecap="round" stroke-linejoin="round"/>
<path d="M87.1919 150.871C89.6813 155.771 87.9411 161.378 87.9411 161.378" stroke="#7247C4" stroke-width="3" stroke-linecap="round" stroke-linejoin="round"/>
<path d="M15.1387 135.161C15.1387 135.161 15.6849 148.716 26.2364 150.694C26.2364 150.694 37.2542 153.029 40.7779 143.551C40.7779 143.551 42.937 140.829 38.6792 121.612" stroke="#7247C4" stroke-width="3" stroke-linecap="round" stroke-linejoin="round"/>
<path d="M99.5786 135.161C99.5786 135.161 99.0323 148.716 88.4809 150.694C88.4809 150.694 77.463 153.029 73.9394 143.551C73.9394 143.551 71.7803 140.829 76.038 121.612" stroke="#7247C4" stroke-width="3" stroke-linecap="round" stroke-linejoin="round"/>
</g>
<defs>
<clipPath id="clip0_1857_6680">
<rect width="114" height="113" fill="white" transform="translate(0.549683 75.3618)"/>
</clipPath>
</defs>
</svg>
