<svg width="20" height="20" viewBox="0 0 20 20" fill="none" xmlns="http://www.w3.org/2000/svg">
<circle cx="10" cy="10" r="10" fill="#FFEA88"/>
<circle cx="10" cy="10" r="7.27273" fill="#FFD653"/>
<path d="M10.2988 11.8984C10.5176 11.8984 10.7129 11.8555 10.8848 11.7695C11.0566 11.6836 11.1934 11.5625 11.2949 11.4062C11.4004 11.25 11.457 11.0684 11.4648 10.8613H12.9238C12.916 11.291 12.7949 11.6758 12.5605 12.0156C12.3262 12.3555 12.0137 12.625 11.623 12.8242C11.2363 13.0195 10.8027 13.1172 10.3223 13.1172C9.83398 13.1172 9.4082 13.0352 9.04492 12.8711C8.68164 12.707 8.37891 12.4785 8.13672 12.1855C7.89844 11.8926 7.71875 11.5527 7.59766 11.166C7.48047 10.7793 7.42188 10.3652 7.42188 9.92383V9.73633C7.42188 9.29492 7.48047 8.88086 7.59766 8.49414C7.71875 8.10742 7.89844 7.76758 8.13672 7.47461C8.37891 7.18164 8.68164 6.95312 9.04492 6.78906C9.4082 6.625 9.83203 6.54297 10.3164 6.54297C10.8281 6.54297 11.2773 6.64258 11.6641 6.8418C12.0547 7.04102 12.3594 7.32227 12.5781 7.68555C12.8008 8.04883 12.916 8.47656 12.9238 8.96875H11.4648C11.457 8.74219 11.4062 8.53906 11.3125 8.35938C11.2188 8.17969 11.0859 8.03516 10.9141 7.92578C10.7422 7.81641 10.5332 7.76172 10.2871 7.76172C10.0254 7.76172 9.80664 7.81641 9.63086 7.92578C9.45898 8.03516 9.32422 8.18555 9.22656 8.37695C9.13281 8.56445 9.06641 8.77539 9.02734 9.00977C8.99219 9.24023 8.97461 9.48242 8.97461 9.73633V9.92383C8.97461 10.1816 8.99219 10.4277 9.02734 10.6621C9.06641 10.8965 9.13281 11.1074 9.22656 11.2949C9.32422 11.4785 9.45898 11.625 9.63086 11.7344C9.80664 11.8438 10.0293 11.8984 10.2988 11.8984Z" fill="white"/>
</svg>
