<svg width="24" height="24" viewBox="0 0 24 24" fill="none" xmlns="http://www.w3.org/2000/svg">
<circle cx="12" cy="12" r="12" fill="#FFED99"/>
<circle cx="12" cy="12" r="8" fill="#F7CF51"/>
<path d="M12.0449 15.123C11.4043 15.123 10.8477 14.9863 10.375 14.7129C9.90234 14.4355 9.54102 14.0488 9.29102 13.5527C9.04102 13.0566 8.91602 12.4863 8.91602 11.8418C8.91602 11.1934 9.04297 10.6211 9.29688 10.125C9.55078 9.62891 9.91211 9.24414 10.3809 8.9707C10.8496 8.69336 11.4004 8.55469 12.0332 8.55469C12.5762 8.55469 13.0586 8.6543 13.4805 8.85352C13.9023 9.04883 14.2324 9.33008 14.4707 9.69727C14.7129 10.0645 14.8457 10.4883 14.8691 10.9688H13.2285C13.1973 10.7578 13.1309 10.5723 13.0293 10.4121C12.9277 10.252 12.793 10.1289 12.625 10.043C12.4609 9.95312 12.2734 9.90625 12.0625 9.90234C11.7852 9.90625 11.543 9.98242 11.3359 10.1309C11.1289 10.2793 10.9668 10.498 10.8496 10.7871C10.7324 11.0723 10.6738 11.4141 10.6738 11.8125C10.6738 12.2188 10.7305 12.5664 10.8438 12.8555C10.9609 13.1406 11.123 13.3613 11.3301 13.5176C11.5371 13.6699 11.7812 13.7441 12.0625 13.7402C12.2656 13.7441 12.4492 13.7051 12.6133 13.623C12.7773 13.5371 12.9121 13.416 13.0176 13.2598C13.127 13.1035 13.1973 12.9121 13.2285 12.6855H14.8691C14.8418 13.1699 14.709 13.5957 14.4707 13.9629C14.2363 14.3301 13.9102 14.6152 13.4922 14.8184C13.0742 15.0215 12.5918 15.123 12.0449 15.123Z" fill="white"/>
</svg>
