<svg width="49" height="37" viewBox="0 0 49 37" fill="none" xmlns="http://www.w3.org/2000/svg">
<path d="M15.5501 13.8832C15.5501 21.2699 23.0363 27.261 32.275 27.261C33.3021 27.261 34.3081 27.1867 35.2822 27.0434C35.5523 27.0063 35.8276 27.0434 36.0711 27.1549L42.3291 30.0894C43.4038 30.5935 44.5739 29.6065 44.2668 28.4603L43.3456 25.011C43.2026 24.4697 43.3932 23.8913 43.838 23.5464C47.0199 21.116 49 17.6827 49 13.8832C49 6.49111 41.5137 0.5 32.275 0.5C23.0363 0.5 15.5501 6.49111 15.5501 13.8832Z" fill="#CAA9FF"/>
<path fill-rule="evenodd" clip-rule="evenodd" d="M32.5561 19.5252C32.9386 19.7785 33.4319 19.7785 33.8138 19.5252C35.0285 18.7216 37.6731 16.8008 38.8126 14.6514C40.3144 11.8158 38.5507 8.98779 36.219 8.98779C34.8901 8.98779 34.0906 9.68372 33.6484 10.2818C33.5953 10.355 33.5257 10.4147 33.4452 10.4558C33.3647 10.4969 33.2756 10.5183 33.1852 10.5183C33.0949 10.5183 33.0058 10.4969 32.9253 10.4558C32.8448 10.4147 32.7752 10.355 32.7221 10.2818C32.2799 9.68372 31.4804 8.98779 30.1515 8.98779C27.8198 8.98779 26.0561 11.8158 27.5585 14.6514C28.6968 16.8008 31.3426 18.7216 32.5561 19.5252" fill="#FAF7FF"/>
<path d="M33.4499 20.1587C33.4499 27.5454 25.9637 33.5365 16.725 33.5365C15.6979 33.5365 14.6919 33.4622 13.7178 33.3189C13.4477 33.2818 13.1724 33.3189 12.9289 33.4304L6.67093 36.3649C5.59617 36.869 4.42611 35.882 4.73318 34.7358L5.65441 31.2865C5.79735 30.7453 5.60676 30.1668 5.16203 29.8219C1.9801 27.3915 0 23.9582 0 20.1587C0 12.7666 7.48626 6.77551 16.725 6.77551C25.9637 6.77551 33.4499 12.7666 33.4499 20.1587Z" fill="#9358F2"/>
<path d="M12.666 24.4561L15.3907 13.3288" stroke="white" stroke-width="2" stroke-linecap="round"/>
<path d="M16.9868 24.4561L19.7115 13.3288" stroke="white" stroke-width="2" stroke-linecap="round"/>
<path d="M11.8445 16.7864H21.3196" stroke="white" stroke-width="2" stroke-linecap="round"/>
<path d="M11.0466 20.9985H20.5216" stroke="white" stroke-width="2" stroke-linecap="round"/>
</svg>
