<svg width="24" height="24" viewBox="0 0 24 24" fill="none" xmlns="http://www.w3.org/2000/svg">
<path d="M12 20C16.9706 20 21 15 21 15C21 15 16.9706 10 12 10C7.02943 10 3 15 3 15C3 15 7.02943 20 12 20Z" fill="#FAF7FF" stroke="#CFB2FF" stroke-width="2" stroke-linejoin="round"/>
<path d="M12 17C13.1046 17 14 16.1046 14 15C14 13.8954 13.1046 13 12 13C10.8954 13 10 13.8954 10 15C10 16.1046 10.8954 17 12 17Z" fill="#FFED99" stroke="#E8DAFF" stroke-width="2" stroke-linejoin="round"/>
<path d="M14 3C10.5 3 5.00003 4.75 3.50003 6C2.00003 7.25 3 9.5 4.00003 9C5.00006 8.5 11.6 6.1 14 5.5C16.4 4.9 19.8333 5.91667 21 6.5C19.8333 5.5 17.5001 3 14 3Z" fill="#FAF7FF" stroke="#CFB2FF" stroke-width="2" stroke-linejoin="round"/>
</svg>
