<svg width="20" height="20" viewBox="0 0 20 20" fill="none" xmlns="http://www.w3.org/2000/svg">
<path fill-rule="evenodd" clip-rule="evenodd" d="M9.08665 17.9391C9.64165 18.3057 10.3575 18.3057 10.9116 17.9391C12.6741 16.7757 16.5116 13.9949 18.165 10.8832C20.3441 6.77825 17.785 2.68408 14.4016 2.68408C12.4733 2.68408 11.3133 3.69158 10.6716 4.55742C10.5946 4.66346 10.4935 4.74976 10.3767 4.80927C10.2599 4.86877 10.1307 4.89979 9.99956 4.89979C9.86847 4.89979 9.73924 4.86877 9.62243 4.80927C9.50562 4.74976 9.40455 4.66346 9.32748 4.55742C8.68581 3.69158 7.52581 2.68408 5.59748 2.68408C2.21415 2.68408 -0.34502 6.77825 1.83498 10.8832C3.48665 13.9949 7.32581 16.7757 9.08665 17.9391Z" fill="#D3D9DF"/>
</svg>
