<svg width="20" height="20" viewBox="0 0 20 20" fill="none" xmlns="http://www.w3.org/2000/svg">
<g clip-path="url(#clip0_1787_3584)">
<path fill-rule="evenodd" clip-rule="evenodd" d="M10.0002 7.66671C9.73495 7.66671 9.48059 7.56135 9.29306 7.37381C9.10552 7.18628 9.00016 6.93192 9.00016 6.66671C9.00016 6.40149 9.10552 6.14714 9.29306 5.9596C9.48059 5.77206 9.73495 5.66671 10.0002 5.66671C10.2654 5.66671 10.5197 5.77206 10.7073 5.9596C10.8948 6.14714 11.0002 6.40149 11.0002 6.66671C11.0002 6.93192 10.8948 7.18628 10.7073 7.37381C10.5197 7.56135 10.2654 7.66671 10.0002 7.66671ZM10.8335 13.8625C10.8335 14.0836 10.7457 14.2955 10.5894 14.4518C10.4331 14.6081 10.2212 14.6959 10.0002 14.6959C9.77915 14.6959 9.56719 14.6081 9.41091 14.4518C9.25463 14.2955 9.16683 14.0836 9.16683 13.8625V9.69587C9.16683 9.47486 9.25463 9.2629 9.41091 9.10662C9.56719 8.95034 9.77915 8.86254 10.0002 8.86254C10.2212 8.86254 10.4331 8.95034 10.5894 9.10662C10.7457 9.2629 10.8335 9.47486 10.8335 9.69587V13.8625ZM10.0002 0.833374C4.93766 0.833374 0.833496 4.93754 0.833496 10C0.833496 15.0625 4.93766 19.1667 10.0002 19.1667C15.0627 19.1667 19.1668 15.0625 19.1668 10C19.1668 4.93754 15.0627 0.833374 10.0002 0.833374Z" fill="#D3D9DF"/>
</g>
<defs>
<clipPath id="clip0_1787_3584">
<rect width="20" height="20" fill="white"/>
</clipPath>
</defs>
</svg>
