<svg width="17" height="16" viewBox="0 0 17 16" fill="none" xmlns="http://www.w3.org/2000/svg">
<path fill-rule="evenodd" clip-rule="evenodd" d="M14.0453 7.20007H9.37868V2.5334C9.37868 2.32123 9.29439 2.11774 9.14436 1.96771C8.99433 1.81768 8.79085 1.7334 8.57868 1.7334C8.36651 1.7334 8.16302 1.81768 8.01299 1.96771C7.86296 2.11774 7.77868 2.32123 7.77868 2.5334V7.20007H3.11201C2.89984 7.20007 2.69636 7.28435 2.54633 7.43438C2.3963 7.58441 2.31201 7.78789 2.31201 8.00006C2.31201 8.21224 2.3963 8.41572 2.54633 8.56575C2.69636 8.71578 2.89984 8.80007 3.11201 8.80007H7.77868V13.4667C7.77868 13.6789 7.86296 13.8824 8.01299 14.0324C8.16302 14.1824 8.36651 14.2667 8.57868 14.2667C8.79085 14.2667 8.99433 14.1824 9.14436 14.0324C9.29439 13.8824 9.37868 13.6789 9.37868 13.4667V8.80007H14.0453C14.2575 8.80007 14.461 8.71578 14.611 8.56575C14.7611 8.41572 14.8453 8.21224 14.8453 8.00006C14.8453 7.78789 14.7611 7.58441 14.611 7.43438C14.461 7.28435 14.2575 7.20007 14.0453 7.20007Z" fill="#D3D9DF"/>
</svg>
