<svg width="18" height="18" viewBox="0 0 18 18" fill="none" xmlns="http://www.w3.org/2000/svg">
<g clip-path="url(#clip0_1699_5850)">
<path fill-rule="evenodd" clip-rule="evenodd" d="M14.917 5.91675H13.5837V7.91675H14.917C15.5003 7.91675 15.917 8.33341 15.917 8.91675V14.9167C15.917 15.5001 15.5003 15.9167 14.917 15.9167H8.91699C8.33366 15.9167 7.91699 15.5001 7.91699 14.9167V13.7501H5.91699V14.9167C5.91699 16.5834 7.25032 17.9167 8.91699 17.9167H14.917C16.5837 17.9167 17.917 16.5834 17.917 14.9167V8.91675C17.917 7.25008 16.5837 5.91675 14.917 5.91675Z" fill="white"/>
<path fill-rule="evenodd" clip-rule="evenodd" d="M3.0835 2.08337C2.50016 2.08337 2.0835 2.50004 2.0835 3.08337V9.08337C2.0835 9.66671 2.50016 10.0834 3.0835 10.0834H9.0835C9.66683 10.0834 10.0835 9.66671 10.0835 9.08337V3.08337C10.0835 2.50004 9.66683 2.08337 9.0835 2.08337H3.0835ZM9.0835 12.0834H3.0835C1.41683 12.0834 0.0834961 10.75 0.0834961 9.08337V3.08337C0.0834961 1.41671 1.41683 0.083374 3.0835 0.083374H9.0835C10.7502 0.083374 12.0835 1.41671 12.0835 3.08337V9.08337C12.0835 10.75 10.7502 12.0834 9.0835 12.0834Z" fill="white"/>
</g>
<defs>
<clipPath id="clip0_1699_5850">
<rect width="18" height="18" fill="white"/>
</clipPath>
</defs>
</svg>
