<svg width="16" height="19" viewBox="0 0 16 19" fill="none" xmlns="http://www.w3.org/2000/svg">
<path fill-rule="evenodd" clip-rule="evenodd" d="M10.555 13.9467C10.555 14.1456 10.476 14.3363 10.3353 14.477C10.1947 14.6176 10.0039 14.6967 9.80499 14.6967C9.60608 14.6967 9.41532 14.6176 9.27466 14.477C9.13401 14.3363 9.05499 14.1456 9.05499 13.9467V9.77499C9.05499 9.57607 9.13401 9.38531 9.27466 9.24466C9.41532 9.104 9.60608 9.02499 9.80499 9.02499C10.0039 9.02499 10.1947 9.104 10.3353 9.24466C10.476 9.38531 10.555 9.57607 10.555 9.77499V13.9467ZM7.11083 13.9467C7.11083 14.1456 7.03181 14.3363 6.89116 14.477C6.75051 14.6176 6.55974 14.6967 6.36083 14.6967C6.16192 14.6967 5.97115 14.6176 5.8305 14.477C5.68985 14.3363 5.61083 14.1456 5.61083 13.9467V9.77499C5.61083 9.57607 5.68985 9.38531 5.8305 9.24466C5.97115 9.104 6.16192 9.02499 6.36083 9.02499C6.55974 9.02499 6.75051 9.104 6.89116 9.24466C7.03181 9.38531 7.11083 9.57607 7.11083 9.77499V13.9467ZM5.52416 3.21582C5.52416 2.99481 5.61196 2.78284 5.76824 2.62656C5.92452 2.47028 6.13648 2.38249 6.35749 2.38249H9.81083C10.27 2.38249 10.6442 2.75582 10.6442 3.21582V3.99999H5.52416V3.21582ZM14.9158 3.99999H12.3108V3.21582C12.3108 1.83749 11.19 0.71582 9.81083 0.71582H6.35749C4.97916 0.71582 3.85749 1.83749 3.85749 3.21582V3.99999H1.08333C0.818112 3.99999 0.563758 4.10534 0.376221 4.29288C0.188685 4.48042 0.0833282 4.73477 0.0833282 4.99999V5.49999C0.0833282 5.7652 0.188685 6.01956 0.376221 6.20709C0.563758 6.39463 0.818112 6.49999 1.08333 6.49999H1.19249L1.58583 16.53C1.60629 17.0464 1.82588 17.5349 2.19858 17.893C2.57128 18.2511 3.06814 18.451 3.58499 18.4508H12.5817C13.0983 18.451 13.595 18.251 13.9675 17.8929C14.3399 17.5348 14.5591 17.0463 14.5792 16.53L14.9742 6.48832C15.2278 6.47532 15.4669 6.36564 15.6422 6.18181C15.8175 5.99799 15.9157 5.754 15.9167 5.49999V4.99999C15.9167 4.44832 15.4683 3.99999 14.9158 3.99999Z" fill="#D3D9DF"/>
</svg>
