<svg width="25" height="25" viewBox="0 0 25 25" fill="none" xmlns="http://www.w3.org/2000/svg">
<path fill-rule="evenodd" clip-rule="evenodd" d="M12.5 16.167C12.0185 16.167 11.5417 16.0722 11.0969 15.8879C10.652 15.7036 10.2479 15.4336 9.90738 15.0931C9.56692 14.7526 9.29685 14.3484 9.11259 13.9036C8.92833 13.4588 8.83349 12.982 8.83349 12.5005C8.83349 12.019 8.92833 11.5422 9.11259 11.0974C9.29685 10.6526 9.56692 10.2484 9.90738 9.90789C10.2479 9.56743 10.652 9.29735 11.0969 9.1131C11.5417 8.92884 12.0185 8.834 12.5 8.834C13.4724 8.834 14.405 9.22029 15.0926 9.90789C15.7802 10.5955 16.1665 11.5281 16.1665 12.5005C16.1665 13.4729 15.7802 14.4055 15.0926 15.0931C14.405 15.7807 13.4724 16.167 12.5 16.167ZM21.533 14.452C21.03 13.9311 20.7492 13.2351 20.75 12.511V12.49C20.7492 11.7659 21.03 11.0699 21.533 10.549L22.472 9.579C22.858 9.179 22.932 8.571 22.655 8.09L21.397 5.912C21.262 5.67755 21.0542 5.4935 20.8052 5.38775C20.5562 5.28201 20.2794 5.26033 20.017 5.326L18.702 5.654C17.9958 5.8308 17.2485 5.7242 16.62 5.357L16.602 5.347C15.9829 4.98722 15.5274 4.40155 15.331 3.713L14.955 2.404C14.8809 2.14368 14.7239 1.91462 14.5079 1.7515C14.2919 1.58837 14.0287 1.50008 13.758 1.5H11.242C10.687 1.5 10.197 1.869 10.045 2.404L9.63999 3.813C9.46217 4.44272 9.04417 4.97743 8.47599 5.302C8.41731 5.33482 8.35929 5.36882 8.30199 5.404C7.7319 5.7435 7.05057 5.84345 6.40699 5.682L4.98199 5.326C4.71964 5.26041 4.44307 5.28202 4.19409 5.38756C3.94512 5.49311 3.73727 5.67685 3.60199 5.911L2.34499 8.09C2.20979 8.32444 2.15452 8.59649 2.18754 8.8651C2.22055 9.1337 2.34005 9.38428 2.52799 9.579L3.46699 10.549C3.96999 11.07 4.25099 11.766 4.25099 12.489V12.511C4.25099 13.235 3.96999 13.931 3.46699 14.452L2.96399 14.972C2.65032 15.2963 2.45079 15.714 2.39558 16.1618C2.34037 16.6096 2.43249 17.0632 2.65799 17.454L3.60299 19.089C3.88099 19.571 4.44299 19.81 4.98299 19.675L6.40799 19.319C7.05157 19.1576 7.7329 19.2575 8.30299 19.597C8.35999 19.632 8.41799 19.666 8.47699 19.699C9.04599 20.021 9.46099 20.558 9.64099 21.188L10.045 22.597C10.197 23.132 10.687 23.5 11.242 23.5H13.758C14.313 23.5 14.803 23.132 14.955 22.597L15.359 21.188C15.539 20.558 15.954 20.021 16.523 19.699C16.582 19.666 16.64 19.632 16.697 19.597C17.2671 19.2575 17.9484 19.1576 18.592 19.319L20.017 19.675C20.2793 19.7406 20.5559 19.719 20.8049 19.6134C21.0539 19.5079 21.2617 19.3242 21.397 19.09L22.655 16.911C22.7902 16.6766 22.8455 16.4045 22.8124 16.1359C22.7794 15.8673 22.6599 15.6167 22.472 15.422L21.532 14.452H21.533Z" fill="#8B95A1"/>
</svg>
