<svg width="16" height="16" viewBox="0 0 16 16" fill="none" xmlns="http://www.w3.org/2000/svg">
<path fill-rule="evenodd" clip-rule="evenodd" d="M9.21 8L12.9773 4.23266C13.0517 4.15838 13.1106 4.07018 13.1509 3.97311C13.1911 3.87603 13.2118 3.77198 13.2119 3.6669C13.2119 3.56181 13.1912 3.45775 13.1511 3.36066C13.1109 3.26356 13.052 3.17533 12.9777 3.101C12.9034 3.02667 12.8152 2.9677 12.7181 2.92746C12.621 2.88721 12.517 2.86649 12.4119 2.86646C12.3068 2.86642 12.2028 2.88709 12.1057 2.92728C12.0086 2.96746 11.9203 3.02638 11.846 3.10066L8.07867 6.86866L4.31067 3.10066C4.15891 2.95892 3.95801 2.88167 3.75037 2.88525C3.54274 2.88882 3.34462 2.97292 3.19782 3.1198C3.05102 3.26669 2.96703 3.46486 2.96359 3.6725C2.96014 3.88013 3.0375 4.08099 3.17933 4.23266L6.94733 8L3.17933 11.7673C3.06797 11.8795 2.99225 12.022 2.9617 12.1771C2.93114 12.3321 2.94712 12.4927 3.00761 12.6387C3.06811 12.7847 3.17042 12.9096 3.30168 12.9976C3.43295 13.0856 3.5873 13.1328 3.74533 13.1333C3.95 13.1333 4.15467 13.0553 4.31067 12.8993L8.07867 9.13133L11.846 12.8993C11.9202 12.9738 12.0084 13.0328 12.1054 13.0731C12.2025 13.1134 12.3066 13.1342 12.4117 13.1342C12.5168 13.1342 12.6208 13.1134 12.7179 13.0731C12.815 13.0328 12.9031 12.9738 12.9773 12.8993C13.0517 12.825 13.1107 12.7368 13.151 12.6397C13.1912 12.5426 13.212 12.4385 13.212 12.3333C13.212 12.2282 13.1912 12.1241 13.151 12.027C13.1107 11.9299 13.0517 11.8416 12.9773 11.7673L9.21 8Z" fill="#9358F2"/>
</svg>
