<svg width="17" height="23" viewBox="0 0 17 23" fill="none" xmlns="http://www.w3.org/2000/svg">
<g id="&#234;&#184;&#128;&#235;&#179;&#180;&#234;&#184;&#176; &#236;&#149;&#132;&#236;&#157;&#180;&#236;&#189;&#152;" clip-path="url(#clip0_2147_2117)">
<path id="Vector" d="M14.8538 2.25061H2.14619C0.960882 2.25061 0 3.21929 0 4.41422V20.8363C0 22.0313 0.960882 22.9999 2.14619 22.9999H14.8538C16.0391 22.9999 17 22.0313 17 20.8363V4.41422C17 3.21929 16.0391 2.25061 14.8538 2.25061Z" fill="#8B95A1"/>
<path id="Vector_2" d="M13.4817 7.8064H3.51517C3.00113 7.8064 2.58441 8.22649 2.58441 8.74471C2.58441 9.26293 3.00113 9.68303 3.51517 9.68303H13.4817C13.9957 9.68303 14.4124 9.26293 14.4124 8.74471C14.4124 8.22649 13.9957 7.8064 13.4817 7.8064Z" fill="#D3D9DF"/>
<path id="Vector_3" d="M13.4817 11.6338H3.51517C3.00113 11.6338 2.58441 12.0539 2.58441 12.5721C2.58441 13.0903 3.00113 13.5104 3.51517 13.5104H13.4817C13.9957 13.5104 14.4124 13.0903 14.4124 12.5721C14.4124 12.0539 13.9957 11.6338 13.4817 11.6338Z" fill="#D3D9DF"/>
<path id="Vector_4" d="M8.83747 15.4612H3.51517C3.00113 15.4612 2.58441 15.8813 2.58441 16.3995C2.58441 16.9177 3.00113 17.3378 3.51517 17.3378H8.83747C9.35151 17.3378 9.76823 16.9177 9.76823 16.3995C9.76823 15.8813 9.35151 15.4612 8.83747 15.4612Z" fill="#D3D9DF"/>
<path id="Vector_5" d="M9.43558 5.36226L12.2151 2.02173C12.8804 1.22207 12.3174 0 11.2811 0H5.71893C4.68262 0 4.11649 1.22207 4.78497 2.02173L7.56446 5.36226C8.05383 5.94911 8.94621 5.94911 9.43558 5.36226Z" fill="#D3D9DF"/>
</g>
<defs>
<clipPath id="clip0_2147_2117">
<rect width="17" height="23" fill="white"/>
</clipPath>
</defs>
</svg>
