<svg width="17" height="17" viewBox="0 0 17 17" fill="none" xmlns="http://www.w3.org/2000/svg">
<path fill-rule="evenodd" clip-rule="evenodd" d="M8.49996 6.63341C8.28779 6.63341 8.0843 6.54913 7.93427 6.3991C7.78425 6.24907 7.69996 6.04559 7.69996 5.83342C7.69996 5.62124 7.78425 5.41776 7.93427 5.26773C8.0843 5.1177 8.28779 5.03341 8.49996 5.03341C8.71213 5.03341 8.91562 5.1177 9.06564 5.26773C9.21567 5.41776 9.29996 5.62124 9.29996 5.83342C9.29996 6.04559 9.21567 6.24907 9.06564 6.3991C8.91562 6.54913 8.71213 6.63341 8.49996 6.63341ZM9.16663 11.5901C9.16663 11.7669 9.09639 11.9365 8.97136 12.0615C8.84634 12.1865 8.67677 12.2567 8.49996 12.2567C8.32315 12.2567 8.15358 12.1865 8.02855 12.0615C7.90353 11.9365 7.83329 11.7669 7.83329 11.5901V8.25675C7.83329 8.07994 7.90353 7.91037 8.02855 7.78534C8.15358 7.66032 8.32315 7.59008 8.49996 7.59008C8.67677 7.59008 8.84634 7.66032 8.97136 7.78534C9.09639 7.91037 9.16663 8.07994 9.16663 8.25675V11.5901ZM8.49996 1.16675C4.44996 1.16675 1.16663 4.45008 1.16663 8.50008C1.16663 12.5501 4.44996 15.8334 8.49996 15.8334C12.55 15.8334 15.8333 12.5501 15.8333 8.50008C15.8333 4.45008 12.55 1.16675 8.49996 1.16675Z" fill="#D3D9DF"/>
</svg>
