<svg width="287" height="202" viewBox="0 0 287 202" fill="none" xmlns="http://www.w3.org/2000/svg">
<g clip-path="url(#clip0_1931_5130)">
<path d="M40.1292 196.673C38.3399 196.673 36.5379 196.111 35.004 194.947C9.59267 175.658 7.64957 160.855 7.7554 156.235C7.23611 147.029 10.7865 141.09 13.8909 137.711C17.0913 134.227 20.5443 132.686 21.6055 132.27C29.7645 129.012 38.1649 130.184 45.2628 135.573C45.4067 135.683 45.5492 135.792 45.6889 135.903C45.8286 135.792 45.9712 135.683 46.1151 135.573C53.213 130.185 61.6119 129.012 69.7696 132.27C70.8279 132.685 74.2823 134.225 77.4869 137.711C80.59 141.09 84.1389 147.025 83.6239 156.226C83.6704 158.088 83.3811 161.54 81.4084 166.278C78.4973 173.272 72.9996 180.492 65.0692 187.737C61.6218 190.886 56.2666 190.654 53.1072 187.219C49.9477 183.786 50.1791 178.449 53.6264 175.301C65.7169 164.257 66.6284 157.307 66.6905 156.595C66.6722 156.248 66.6764 155.901 66.7018 155.553C66.8909 152.95 66.421 150.902 65.3076 149.468C64.547 148.488 63.6707 148.024 63.5085 147.944C63.5028 147.943 63.4986 147.94 63.4929 147.939C60.8697 146.886 58.7417 147.202 56.3795 148.995C54.3052 150.569 53.0422 152.594 53.0309 152.614C51.5182 155.233 48.7595 156.919 45.7313 156.919C45.703 156.919 45.6748 156.919 45.6466 156.919C42.6 156.888 39.8498 155.303 38.3737 152.652C38.1903 152.36 36.8413 150.294 34.7147 148.782C32.4569 147.178 30.4151 146.925 27.8906 147.939C27.8849 147.94 27.8807 147.943 27.875 147.944C27.7128 148.024 26.8351 148.488 26.0745 149.468C24.9611 150.902 24.4912 152.95 24.6803 155.553C24.7057 155.899 24.7085 156.248 24.6916 156.594C24.765 157.432 26.0293 166.922 45.267 181.525C48.9867 184.348 49.705 189.642 46.8714 193.348C45.2049 195.527 42.6819 196.672 40.1306 196.672L40.1292 196.673ZM66.7272 157.068C66.7272 157.079 66.73 157.092 66.7314 157.103C66.7314 157.092 66.7286 157.079 66.7272 157.068ZM24.6507 157.092C24.6507 157.092 24.6507 157.1 24.6507 157.103C24.6507 157.099 24.6507 157.094 24.6507 157.092ZM24.6507 157.08V157.092C24.6507 157.092 24.6507 157.085 24.6507 157.08ZM66.7244 157.058C66.7244 157.058 66.7244 157.064 66.7244 157.066C66.7244 157.064 66.7244 157.061 66.7244 157.058ZM27.6464 148.031C27.6464 148.031 27.6422 148.033 27.6394 148.034C27.6422 148.034 27.6436 148.033 27.6464 148.031ZM63.7342 148.031L63.7413 148.034C63.7385 148.034 63.7342 148.031 63.7342 148.031ZM63.7272 148.029C63.7272 148.029 63.7314 148.03 63.7342 148.031C63.7314 148.031 63.73 148.03 63.7272 148.029Z" fill="#8F89FF"/>
<path d="M52.2704 138.898C55.3877 138.898 57.9148 136.38 57.9148 133.274C57.9148 130.168 55.3877 127.65 52.2704 127.65C49.153 127.65 46.6259 130.168 46.6259 133.274C46.6259 136.38 49.153 138.898 52.2704 138.898Z" fill="white"/>
<path d="M61.6881 138.898C64.8055 138.898 67.3326 136.38 67.3326 133.274C67.3326 130.168 64.8055 127.65 61.6881 127.65C58.5708 127.65 56.0437 130.168 56.0437 133.274C56.0437 136.38 58.5708 138.898 61.6881 138.898Z" fill="white"/>
<path d="M53.2341 134.68C55.1825 134.68 56.7619 133.106 56.7619 131.165C56.7619 129.224 55.1825 127.65 53.2341 127.65C51.2858 127.65 49.7064 129.224 49.7064 131.165C49.7064 133.106 51.2858 134.68 53.2341 134.68Z" fill="black"/>
<path d="M62.6533 134.68C64.6017 134.68 66.1811 133.106 66.1811 131.165C66.1811 129.224 64.6017 127.65 62.6533 127.65C60.705 127.65 59.1255 129.224 59.1255 131.165C59.1255 133.106 60.705 134.68 62.6533 134.68Z" fill="black"/>
<path d="M38.8803 133.852C37.6244 133.852 36.3502 133.572 35.1465 132.983C6.48682 118.924 1.7215 104.77 0.934096 100.218C-1.35191 91.2825 0.984896 84.7756 3.37955 80.8627C5.84759 76.8303 8.93651 74.658 9.89889 74.045C17.2762 69.2843 25.7457 68.8232 33.7523 72.7515C33.9146 72.8317 34.0755 72.9118 34.2349 72.9933C34.3507 72.8584 34.4692 72.7234 34.5891 72.5884C40.5144 65.9409 48.5309 63.1809 57.1655 64.8133C58.2845 65.0171 61.9718 65.8663 65.7874 68.6741C69.4845 71.3947 74.113 76.5393 75.383 85.6656C75.788 87.4849 76.1704 90.9282 75.1501 95.9547C73.6431 103.375 69.6412 111.515 63.2573 120.145C60.483 123.895 55.1829 124.695 51.4181 121.93C47.6546 119.166 46.8517 113.885 49.6259 110.134C59.357 96.9796 58.9111 89.9848 58.8349 89.2734C58.7502 88.9359 58.6867 88.5943 58.6444 88.2498C58.3269 85.6585 57.4717 83.7394 56.1015 82.5457C55.166 81.7302 54.2163 81.4434 54.0413 81.3942L54.0258 81.3913C51.2473 80.8599 49.221 81.5783 47.2496 83.79C45.5182 85.7331 44.6687 87.9616 44.6616 87.9827C43.6739 90.8692 41.2566 93.0667 38.2467 93.6221C35.2523 94.1747 32.2467 93.1483 30.2866 90.8284C30.0496 90.5781 28.328 88.808 25.9489 87.7324C23.423 86.5907 21.3712 86.7341 19.0881 88.2132C19.0838 88.2161 19.0796 88.2189 19.0739 88.2217C18.93 88.3328 18.1595 88.9556 17.6022 90.0621C16.7865 91.6832 16.7216 93.7824 17.4088 96.3005C17.5006 96.6352 17.5711 96.9754 17.6205 97.3199C17.8547 98.1283 20.9267 107.2 42.624 117.842C46.8192 119.9 48.5464 124.956 46.4806 129.136C45.0074 132.118 42.0031 133.848 38.8775 133.848L38.8803 133.852ZM17.6784 97.819C17.6784 97.819 17.6784 97.826 17.6784 97.8303C17.6784 97.826 17.6784 97.8232 17.6784 97.819ZM17.6784 97.8078C17.6784 97.8078 17.6784 97.8148 17.6784 97.8176C17.6784 97.8148 17.6784 97.812 17.6784 97.8078ZM17.6784 97.7993C17.6784 97.7993 17.6784 97.8021 17.6784 97.8035C17.6784 97.8021 17.6784 97.8007 17.6784 97.7993ZM58.9731 89.7542C58.9731 89.7542 58.976 89.7612 58.9774 89.7655C58.9774 89.7612 58.9746 89.7584 58.9731 89.7542ZM58.9689 89.743C58.9689 89.743 58.9717 89.75 58.9717 89.7542C58.9717 89.75 58.9689 89.7472 58.9689 89.743ZM58.9661 89.7331C58.9661 89.7331 58.9675 89.7387 58.9689 89.743C58.9689 89.7402 58.9675 89.7373 58.9661 89.7331ZM58.9633 89.7247C58.9633 89.7247 58.9633 89.7275 58.9647 89.7289C58.9647 89.7275 58.9647 89.7261 58.9633 89.7247ZM18.8707 88.3567C18.8707 88.3567 18.8665 88.3595 18.8651 88.3609C18.8665 88.3609 18.8693 88.3581 18.8707 88.3567ZM54.26 81.4363C54.2699 81.4377 54.2812 81.4392 54.2911 81.442C54.2798 81.4406 54.2699 81.4392 54.26 81.4363Z" fill="#8F89FF"/>
<path d="M18.5871 79.5705C21.7045 79.5705 24.2316 77.0525 24.2316 73.9465C24.2316 70.8405 21.7045 68.3225 18.5871 68.3225C15.4698 68.3225 12.9427 70.8405 12.9427 73.9465C12.9427 77.0525 15.4698 79.5705 18.5871 79.5705Z" fill="white"/>
<path d="M27.8299 77.7665C30.9472 77.7665 33.4744 75.2486 33.4744 72.1425C33.4744 69.0365 30.9472 66.5186 27.8299 66.5186C24.7126 66.5186 22.1855 69.0365 22.1855 72.1425C22.1855 75.2486 24.7126 77.7665 27.8299 77.7665Z" fill="white"/>
<path d="M19.1276 75.2077C21.0759 75.2077 22.6554 73.634 22.6554 71.6927C22.6554 69.7514 21.0759 68.1777 19.1276 68.1777C17.1792 68.1777 15.5998 69.7514 15.5998 71.6927C15.5998 73.634 17.1792 75.2077 19.1276 75.2077Z" fill="black"/>
<path d="M28.3689 73.4025C30.3173 73.4025 31.8967 71.8288 31.8967 69.8875C31.8967 67.9463 30.3173 66.3726 28.3689 66.3726C26.4206 66.3726 24.8412 67.9463 24.8412 69.8875C24.8412 71.8288 26.4206 73.4025 28.3689 73.4025Z" fill="black"/>
<path d="M112 21.9037C112 25.2388 110.863 30.178 105.445 34.7658C102.877 36.9408 99.4791 38.9106 95.346 40.6175C88.9254 43.2706 82.5754 44.5332 82.3087 44.5867C79.3835 45.1603 76.3708 44.1606 74.3769 41.9518C72.383 39.7444 71.7014 36.654 72.5833 33.8167C73.4244 31.1088 73.358 28.8648 72.3872 27.1481C72.0457 26.5463 71.6647 26.1203 71.405 25.87C71.302 25.7702 71.2272 25.7084 71.1934 25.6802C71.1906 25.6788 71.1877 25.676 71.1849 25.6746H71.1835C68.954 24.1196 66.9078 23.9059 64.3453 24.9604C61.9308 25.953 60.1486 27.6627 59.9031 27.9059C57.8428 30.1794 54.7878 31.1819 51.7892 30.4887C48.792 29.7956 46.4919 27.5558 45.6466 24.6103C45.5337 24.2841 44.6885 21.967 42.9599 20.0169C41.124 17.9459 39.1936 17.24 36.5026 17.659C36.4984 17.659 36.4927 17.6604 36.4871 17.6618C36.3093 17.7026 35.3511 17.9585 34.3888 18.7402C32.9776 19.8875 32.0562 21.7758 31.6498 24.3544C31.5962 24.6974 31.52 25.0377 31.424 25.3709C31.3069 26.2033 30.3854 35.7331 45.8131 54.2894C48.7962 57.8775 48.2953 63.1964 44.6941 66.1687C43.1137 67.472 41.2002 68.1076 39.298 68.1076C36.8624 68.1076 34.4466 67.0671 32.773 65.0537C12.3937 40.5416 13.8571 25.6845 15.0099 21.2078C16.5918 12.1222 21.3981 7.13796 25.1883 4.5439C29.0928 1.87392 32.8013 1.14983 33.933 0.982515C42.6226 -0.355993 50.5389 2.67674 56.2328 9.52534C56.3485 9.66454 56.4614 9.80373 56.5728 9.94292C56.7351 9.867 56.8988 9.79108 57.0639 9.71656C65.2004 6.06659 73.6501 6.8174 80.8581 11.827C81.7979 12.4723 84.8106 14.75 87.139 18.864C88.0294 20.4387 88.8972 22.4169 89.4616 24.7776C92.9556 23.2647 94.5713 21.9445 95.0863 21.3301C95.3827 16.9392 99.0516 13.4678 103.533 13.4678C108.015 13.4678 112 17.2457 112 21.9037Z" fill="#8F89FF"/>
<path d="M50.0225 16.7548C53.1398 16.7548 55.6669 14.2369 55.6669 11.1308C55.6669 8.02478 53.1398 5.50684 50.0225 5.50684C46.9051 5.50684 44.378 8.02478 44.378 11.1308C44.378 14.2369 46.9051 16.7548 50.0225 16.7548Z" fill="white"/>
<path d="M59.4402 16.7548C62.5576 16.7548 65.0847 14.2369 65.0847 11.1308C65.0847 8.02478 62.5576 5.50684 59.4402 5.50684C56.3229 5.50684 53.7958 8.02478 53.7958 11.1308C53.7958 14.2369 56.3229 16.7548 59.4402 16.7548Z" fill="white"/>
<path d="M50.9834 13.8486C52.9318 13.8486 54.5112 12.2749 54.5112 10.3336C54.5112 8.39232 52.9318 6.8186 50.9834 6.8186C49.0351 6.8186 47.4557 8.39232 47.4557 10.3336C47.4557 12.2749 49.0351 13.8486 50.9834 13.8486Z" fill="black"/>
<path d="M60.5621 13.8486C62.5104 13.8486 64.0898 12.2749 64.0898 10.3336C64.0898 8.39232 62.5104 6.8186 60.5621 6.8186C58.6137 6.8186 57.0343 8.39232 57.0343 10.3336C57.0343 12.2749 58.6137 13.8486 60.5621 13.8486Z" fill="black"/>
</g>
<path d="M163.347 145.705C163.347 148.81 160.83 151.328 157.724 151.328C156.636 151.328 155.62 151.019 154.76 150.483C154.071 150.054 153.481 149.481 153.034 148.805C152.429 149.718 151.566 150.444 150.549 150.879C149.872 151.168 149.126 151.328 148.343 151.328C145.238 151.328 142.72 148.81 142.72 145.705C142.72 144.558 143.065 143.491 143.654 142.603C143.867 142.281 144.112 141.982 144.386 141.712C145.189 140.915 146.232 140.359 147.397 140.163C147.366 140.188 147.334 140.213 147.303 140.239C146.72 140.418 146.202 140.747 145.793 141.179C145.415 141.577 145.131 142.062 144.972 142.603C144.878 142.918 144.829 143.251 144.829 143.597C144.829 145.538 146.402 147.111 148.343 147.111C149.178 147.111 149.946 146.818 150.549 146.331C151.347 145.688 151.857 144.702 151.857 143.597C151.857 143.251 151.808 142.918 151.714 142.603C151.51 141.908 151.097 141.304 150.549 140.863C149.946 140.375 149.178 140.083 148.343 140.083C149.126 140.083 149.872 140.243 150.549 140.531C151.565 140.965 152.428 141.691 153.032 142.603C153.032 142.603 153.032 142.604 153.032 142.606C153.032 142.604 153.034 142.603 153.034 142.603C153.481 141.927 154.07 141.355 154.758 140.927C155.554 140.433 156.485 140.133 157.48 140.091C156.334 140.168 155.34 140.795 154.758 141.71C154.583 141.984 154.445 142.284 154.352 142.603C154.258 142.918 154.209 143.251 154.209 143.597C154.209 144.291 154.41 144.938 154.758 145.483C155.381 146.461 156.476 147.111 157.723 147.111C159.663 147.111 161.237 145.538 161.237 143.597C161.237 143.251 161.188 142.918 161.094 142.603C160.991 142.25 160.834 141.923 160.633 141.626C160.033 140.742 159.039 140.144 157.904 140.087C159.479 140.136 160.889 140.833 161.88 141.92C162.075 142.135 162.252 142.361 162.412 142.603C163.001 143.491 163.346 144.558 163.346 145.705H163.347Z" fill="white"/>
<path d="M148.162 140.087C147.864 140.102 147.577 140.154 147.303 140.239C147.334 140.213 147.366 140.188 147.397 140.163C147.647 140.119 147.902 140.094 148.162 140.087Z" fill="#9258F1"/>
<path d="M181.709 163.682H171.628V159.471H181.709C184.067 159.471 186.199 158.504 187.728 156.943C187.179 156.228 186.853 155.332 186.853 154.361C186.853 153.186 187.329 152.122 188.099 151.353C188.642 150.809 189.332 150.413 190.104 150.226C189.696 145.948 186.094 142.603 181.709 142.603H171.628V133.588C171.628 128.93 167.852 125.154 163.194 125.154C158.536 125.154 154.76 128.93 154.76 133.588V140.927C155.556 140.432 156.486 140.133 157.481 140.091C157.488 140.091 157.494 140.089 157.501 140.089C157.535 140.088 157.567 140.085 157.601 140.085C157.642 140.084 157.684 140.082 157.724 140.082C157.74 140.082 157.755 140.082 157.771 140.084H157.817C157.826 140.084 157.834 140.084 157.843 140.085C157.864 140.085 157.885 140.085 157.906 140.087C159.48 140.136 160.89 140.833 161.881 141.92C162.076 142.135 162.254 142.361 162.414 142.603C163.003 143.491 163.347 144.558 163.347 145.705C163.347 148.81 160.83 151.328 157.724 151.328C156.636 151.328 155.62 151.018 154.76 150.483C154.071 150.054 153.481 149.481 153.034 148.805C152.429 149.718 151.566 150.444 150.549 150.879C149.872 151.167 149.126 151.328 148.343 151.328C145.238 151.328 142.72 148.81 142.72 145.705C142.72 144.558 143.065 143.491 143.654 142.603C143.867 142.281 144.112 141.981 144.386 141.712C145.189 140.915 146.232 140.359 147.397 140.163C147.647 140.119 147.902 140.094 148.162 140.087C148.222 140.084 148.283 140.082 148.343 140.082C149.126 140.082 149.872 140.243 150.549 140.531V133.588C150.549 128.93 146.773 125.154 142.115 125.154C137.456 125.154 133.681 128.93 133.681 133.588V142.603H124.358C119.7 142.603 115.924 146.378 115.924 151.037C115.924 155.695 119.7 159.471 124.358 159.471H133.681V163.682H124.358C119.7 163.682 115.924 167.458 115.924 172.116C115.924 176.774 119.7 180.55 124.358 180.55H133.681V190.939C133.681 195.596 137.458 199.373 142.115 199.373C146.772 199.373 150.549 195.596 150.549 190.939V180.55H154.76V190.939C154.76 195.596 158.537 199.373 163.194 199.373C167.851 199.373 171.628 195.596 171.628 190.939V180.55H181.709C186.366 180.55 190.143 176.774 190.143 172.116C190.143 167.458 186.366 163.682 181.709 163.682ZM160.11 159.471C159.788 161.246 158.555 162.767 156.829 163.682C156.198 164.018 155.502 164.271 154.76 164.426C154.207 164.542 153.628 164.604 153.034 164.604C152.159 164.604 151.323 164.472 150.549 164.229C150.087 164.084 149.649 163.901 149.238 163.682C147.512 162.767 146.28 161.246 145.958 159.471C145.901 159.167 145.873 158.856 145.873 158.54C145.873 155.93 147.819 153.706 150.549 152.851C151.323 152.608 152.159 152.476 153.034 152.476C153.628 152.476 154.207 152.538 154.76 152.653C157.88 153.308 160.194 155.695 160.194 158.54C160.194 158.856 160.166 159.167 160.11 159.471Z" fill="#9258F1"/>
<path d="M157.843 140.086H157.817C157.826 140.084 157.835 140.084 157.843 140.086Z" fill="#9258F1"/>
<path d="M157.843 140.085H157.818C157.806 140.084 157.796 140.084 157.786 140.084H157.818C157.826 140.084 157.835 140.084 157.843 140.085Z" fill="#9258F1"/>
<path d="M190.143 151.037C190.143 153.336 189.223 155.422 187.728 156.943C187.179 156.228 186.853 155.332 186.853 154.361C186.853 153.186 187.329 152.122 188.099 151.353C188.642 150.809 189.332 150.413 190.104 150.226C190.131 150.493 190.143 150.763 190.143 151.037Z" fill="#9258F1"/>
<path d="M153.035 142.603C153.035 142.603 153.034 142.605 153.034 142.606C153.034 142.605 153.034 142.603 153.034 142.603H153.037H153.035Z" fill="#9258F1"/>
<path d="M148.162 140.087C147.864 140.102 147.577 140.154 147.303 140.239C147.334 140.213 147.366 140.188 147.397 140.163C147.647 140.119 147.902 140.094 148.162 140.087Z" fill="white"/>
<path d="M157.843 140.085H157.818C157.806 140.084 157.796 140.084 157.786 140.084H157.818C157.826 140.084 157.835 140.084 157.843 140.085Z" fill="white"/>
<path d="M151.857 143.597C151.857 144.702 151.347 145.688 150.549 146.331C149.946 146.818 149.178 147.111 148.343 147.111C146.402 147.111 144.829 145.538 144.829 143.597C144.829 143.251 144.878 142.918 144.972 142.603C145.131 142.062 145.415 141.577 145.793 141.179C146.202 140.747 146.72 140.418 147.303 140.239C147.577 140.154 147.864 140.102 148.162 140.087C148.222 140.084 148.283 140.083 148.343 140.083C149.178 140.083 149.946 140.375 150.549 140.863C151.097 141.304 151.51 141.908 151.714 142.603C151.808 142.918 151.857 143.251 151.857 143.597Z" fill="black"/>
<path d="M161.239 143.597C161.239 145.538 159.664 147.111 157.724 147.111C156.478 147.111 155.383 146.461 154.76 145.483C154.411 144.938 154.21 144.291 154.21 143.597C154.21 143.251 154.26 142.918 154.354 142.603C154.446 142.284 154.584 141.984 154.76 141.71C155.342 140.795 156.336 140.168 157.481 140.091C157.488 140.091 157.494 140.09 157.501 140.09C157.535 140.088 157.567 140.085 157.601 140.085C157.642 140.084 157.684 140.083 157.724 140.083C157.74 140.083 157.755 140.083 157.771 140.084H157.786C157.796 140.084 157.806 140.084 157.817 140.085H157.843C157.864 140.085 157.885 140.085 157.906 140.087C159.04 140.144 160.034 140.742 160.634 141.626C160.835 141.923 160.993 142.25 161.095 142.603C161.189 142.918 161.239 143.251 161.239 143.597Z" fill="black"/>
<path d="M286.909 154.661L282.519 174.385L279.486 188.01C279.264 189.007 278.657 189.836 277.841 190.355C277.257 190.727 276.565 190.94 275.834 190.94H230.15C228.438 190.94 226.944 189.776 226.523 188.116L219.056 158.616L218.081 154.765C217.482 152.402 219.27 150.106 221.708 150.106H283.257C285.651 150.106 287.429 152.323 286.909 154.661Z" fill="#AB80FF"/>
<path d="M222.451 150.106V158.616H191.108C189.729 158.616 188.503 157.961 187.728 156.944C187.179 156.228 186.853 155.333 186.853 154.361C186.853 153.186 187.329 152.122 188.099 151.353C188.642 150.809 189.332 150.413 190.104 150.226C190.426 150.147 190.762 150.106 191.108 150.106H222.451Z" fill="#AB80FF"/>
<path d="M282.519 174.384C279.403 167.993 272.843 163.589 265.253 163.589C254.652 163.589 246.059 172.183 246.059 182.785C246.059 185.7 246.709 188.463 247.871 190.939C250.937 197.463 257.567 201.98 265.253 201.98C275.855 201.98 284.449 193.386 284.449 182.785C284.449 179.772 283.755 176.922 282.519 174.384ZM256.745 192.623C255.928 193.546 254.445 193.4 253.824 192.335L253.009 190.939H258.235L256.745 192.623ZM267.741 197.47H262.765C261.531 197.47 260.658 196.264 261.045 195.091L262.413 190.939H268.094L269.462 195.091C269.849 196.264 268.976 197.47 267.741 197.47ZM276.749 192.256C276.135 193.326 274.653 193.482 273.829 192.564L272.372 190.939H275.834C276.565 190.939 277.256 190.727 277.841 190.354L276.749 192.256Z" fill="#9258F1"/>
<path d="M266.974 178.032L269.462 170.478C269.849 169.306 268.976 168.1 267.742 168.1H262.764C261.53 168.1 260.657 169.306 261.044 170.478L263.532 178.032C264.078 179.692 266.426 179.692 266.973 178.032H266.974Z" fill="#AB80FF"/>
<path d="M268.094 190.94H262.413L263.533 187.538C264.08 185.879 266.427 185.879 266.974 187.538L268.094 190.94Z" fill="#AB80FF"/>
<path d="M261.988 178.926L256.678 173.007C255.854 172.089 254.372 172.245 253.758 173.315L251.28 177.63C250.665 178.7 251.277 180.058 252.486 180.306L260.276 181.91C261.988 182.263 263.156 180.226 261.99 178.926H261.988Z" fill="#AB80FF"/>
<path d="M279.227 187.941L277.841 190.354C277.256 190.727 276.565 190.939 275.834 190.939H272.372L268.519 186.643C267.352 185.343 268.52 183.308 270.232 183.661L278.022 185.264C279.23 185.513 279.841 186.87 279.227 187.941Z" fill="#AB80FF"/>
<path d="M262.015 186.666L258.235 190.939H253.009L251.315 188.037C250.694 186.971 251.295 185.609 252.503 185.352L260.282 183.694C261.99 183.33 263.173 185.357 262.015 186.666Z" fill="#AB80FF"/>
<path d="M268.492 178.904L273.762 172.948C274.58 172.025 276.062 172.169 276.683 173.235L279.191 177.533C279.812 178.599 279.21 179.961 278.004 180.218L270.225 181.876C268.516 182.24 267.334 180.213 268.491 178.904H268.492Z" fill="#AB80FF"/>
<defs>
<clipPath id="clip0_1931_5130">
<rect width="112" height="196" fill="white" transform="translate(-6.10352e-05 0.673096)"/>
</clipPath>
</defs>
</svg>
