<svg width="246" height="127" viewBox="0 0 246 127" fill="none" xmlns="http://www.w3.org/2000/svg">
<path d="M53.6329 34.5099C53.6825 34.4621 53.7341 34.4165 53.7837 34.3708C53.7507 34.4331 53.7217 34.4933 53.6908 34.5556C53.6722 34.541 53.6515 34.5244 53.6329 34.5099Z" fill="#8F89FF"/>
<path d="M55.6652 38.8428C55.6611 38.7411 55.6549 38.6394 55.6466 38.5376C55.6012 37.9252 55.4897 37.3314 55.3203 36.7667C55.5 37.2317 55.6156 37.7279 55.6549 38.2511C55.6693 38.4504 55.6735 38.6477 55.6652 38.8428Z" fill="#8F89FF"/>
<path d="M132.447 55.4874C128.269 65.2973 124.471 72.3666 120.838 77.0982C118.628 79.9779 116.394 82.1163 114.004 83.6381C109.453 86.5406 105.254 86.6257 102.532 86.1877C97.8974 85.4382 93.833 82.5959 91.0904 78.1841C89.7645 76.0518 88.7215 73.5646 87.8975 70.5811C86.7761 66.5139 86.425 62.6897 86.3899 62.2682C86.3589 61.9235 86.3444 61.5789 86.3424 61.2322C86.33 57.0466 85.254 53.9137 83.1454 51.9206C82.406 51.223 81.6873 50.7912 81.2144 50.5524C81.0078 50.4486 80.8695 50.3925 80.8199 50.3718C77.0219 49.1614 74.0727 49.7572 70.9521 52.3711C68.0154 54.8293 66.2764 58.0224 66.041 58.473C64.1595 62.5817 60.3326 65.3368 55.8407 65.6772C51.3488 66.0157 47.1522 63.871 44.6801 60.0903C44.3807 59.6813 42.1853 56.7871 38.9139 54.7961C35.4423 52.6846 32.4353 52.5372 28.8624 54.3082C28.8541 54.3123 28.8479 54.3165 28.8397 54.3186C28.6125 54.4556 27.3837 55.2362 26.382 56.7622C24.9136 58.9982 24.4551 62.0647 25.019 65.8766C25.0933 66.3852 25.1367 66.896 25.1491 67.4088C25.3494 68.6337 28.2407 82.4693 57.9287 101.844C63.668 105.591 65.2996 113.307 61.5739 119.076C59.2009 122.751 55.2253 124.752 51.1691 124.752C48.8561 124.752 46.5161 124.103 44.4323 122.741C5.21942 97.1477 0.748152 75.566 0.394995 68.752C-1.37699 55.2528 3.14797 46.1156 7.30532 40.7965C11.5886 35.3175 16.4523 32.6683 17.9599 31.9354C27.3899 27.2807 37.3815 26.9568 46.6958 30.8891C42.1915 31.2794 38.8313 35.2428 39.17 39.7854C39.5129 44.3592 43.4802 47.7869 48.03 47.4423C50.9027 47.2243 53.319 45.5572 54.6243 43.2069C56.2662 45.335 58.9035 46.6201 61.7742 46.4021C66.2041 46.0658 69.5519 42.2768 69.4073 37.8587C69.2834 40.4353 67.2657 42.5779 64.6387 42.7751C61.7948 42.991 59.3165 40.8484 59.1038 37.9895C58.889 35.1307 61.0204 32.6393 63.8642 32.4233C66.1794 32.2489 68.2529 33.6379 69.0583 35.7037C67.9596 32.0621 64.4652 29.5416 60.533 29.8385C60.217 29.8614 59.9072 29.9029 59.6036 29.9631C68.2467 24.6232 78.2074 23.4169 88.261 26.6101C89.8554 27.1042 95.0619 28.9914 100.12 33.7687C103.226 36.7023 106.706 41.1287 108.905 47.4402C109.153 46.8734 109.407 46.288 109.665 45.6796C112.358 39.3556 119.642 36.4241 125.933 39.1314C132.224 41.8408 135.14 49.1614 132.447 55.4874Z" fill="#8F89FF"/>
<path d="M52.115 33.7086C52.6664 33.8892 53.1786 34.1632 53.6329 34.51C53.5937 34.5453 53.5524 34.5826 53.5132 34.62C53.2963 34.4726 53.0774 34.3252 52.8543 34.1798C52.6086 34.02 52.3628 33.8622 52.115 33.7086Z" fill="white"/>
<path d="M53.7837 34.3707C53.7507 34.433 53.7217 34.4932 53.6908 34.5554C53.6722 34.5409 53.6515 34.5243 53.6329 34.5098C53.6825 34.462 53.7341 34.4163 53.7837 34.3707Z" fill="white"/>
<path d="M69.4073 37.8587C69.2834 40.4352 67.2656 42.5778 64.6386 42.7751C61.7948 42.991 59.3165 40.8484 59.1038 37.9895C58.889 35.1306 61.0203 32.6392 63.8642 32.4233C66.1793 32.2489 68.2528 33.6379 69.0583 35.7036C67.9596 32.062 64.4652 29.5416 60.5329 29.8385C60.2169 29.8613 59.9072 29.9028 59.6036 29.963C57.1439 30.4302 55.1013 31.9811 53.9406 34.0739C52.2967 31.9479 49.6594 30.6627 46.7887 30.8807C46.7577 30.8828 46.7267 30.8849 46.6958 30.889C42.1915 31.2793 38.8313 35.2427 39.17 39.7854C39.5128 44.3592 43.4802 47.7869 48.0299 47.4423C50.9027 47.2243 53.319 45.5571 54.6242 43.2069C56.2661 45.335 58.9034 46.6201 61.7741 46.4021C66.2041 46.0658 69.5519 42.2768 69.4073 37.8587ZM55.6651 38.8428V38.8553C55.6114 40.2338 55.0146 41.4899 54.0708 42.3951C53.2385 43.1965 52.1336 43.7239 50.8944 43.8173C48.0506 44.0311 45.5723 41.8885 45.3575 39.0317C45.1448 36.1729 47.2761 33.6815 50.1179 33.4655C50.8159 33.4136 51.4913 33.5008 52.115 33.7084C52.6664 33.8891 53.1786 34.1631 53.6329 34.5098C53.6825 34.4621 53.7341 34.4164 53.7837 34.3707C53.7507 34.433 53.7217 34.4932 53.6908 34.5555C54.4115 35.1223 54.9795 35.8801 55.3182 36.7604C55.3202 36.7625 55.3223 36.7646 55.3202 36.7666C55.4999 37.2317 55.6156 37.7279 55.6548 38.2511C55.6693 38.4504 55.6734 38.6476 55.6651 38.8428Z" fill="white"/>
<path d="M55.6651 38.8428C55.661 38.7411 55.6548 38.6394 55.6465 38.5376C55.6011 37.9252 55.4895 37.3314 55.3202 36.7667C55.4999 37.2317 55.6155 37.7279 55.6548 38.2511C55.6692 38.4504 55.6734 38.6477 55.6651 38.8428Z" fill="white"/>
<path d="M69.4073 37.84V37.8587C69.2834 40.4352 67.2656 42.5778 64.6386 42.775C61.7948 42.9909 59.3165 40.8483 59.1038 37.9895C58.889 35.1306 61.0203 32.6392 63.8642 32.4233C66.1793 32.2489 68.2528 33.6378 69.0583 35.7036C69.2318 36.2766 69.3453 36.8766 69.3908 37.4974C69.399 37.6116 69.4052 37.7258 69.4073 37.84Z" fill="white"/>
<path d="M55.6652 38.8429V38.8554C55.6115 40.2339 55.0146 41.49 54.0708 42.3952C53.2385 43.1966 52.1336 43.724 50.8945 43.8174C48.0506 44.0312 45.5723 41.8886 45.3575 39.0318C45.1448 36.173 47.2761 33.6816 50.1179 33.4656C50.816 33.4137 51.4913 33.5009 52.115 33.7085C52.3629 33.8622 52.6086 34.02 52.8544 34.1798C53.0774 34.3252 53.2963 34.4726 53.5132 34.62C53.5524 34.5826 53.5937 34.5452 53.633 34.5099C53.6516 34.5245 53.6722 34.5411 53.6908 34.5556C54.4116 35.1224 54.9795 35.8802 55.3182 36.7605C55.3203 36.7626 55.3224 36.7647 55.3203 36.7667C55.4896 37.3315 55.6012 37.9252 55.6466 38.5377C55.6549 38.6394 55.6611 38.7412 55.6652 38.8429Z" fill="black"/>
<path d="M52.115 33.7086C52.6664 33.8892 53.1786 34.1632 53.6329 34.51C53.5937 34.5453 53.5524 34.5826 53.5132 34.62C53.2963 34.4726 53.0774 34.3252 52.8543 34.1798C52.6086 34.02 52.3628 33.8622 52.115 33.7086Z" fill="black"/>
<path d="M55.6651 38.8428C55.661 38.7411 55.6548 38.6394 55.6465 38.5376C55.6011 37.9252 55.4895 37.3314 55.3202 36.7667C55.4999 37.2317 55.6155 37.7279 55.6548 38.2511C55.6692 38.4504 55.6734 38.6477 55.6651 38.8428Z" fill="black"/>
<path d="M69.4073 37.84V37.8587C69.2834 40.4352 67.2656 42.5778 64.6386 42.775C61.7948 42.9909 59.3165 40.8483 59.1038 37.9895C58.889 35.1306 61.0203 32.6392 63.8642 32.4233C66.1793 32.2489 68.2528 33.6378 69.0583 35.7036C69.2421 36.1749 69.3598 36.6794 69.399 37.2109C69.4156 37.4227 69.4176 37.6324 69.4073 37.84Z" fill="black"/>
<path d="M229.945 71.0627L215.152 71.7666L214.861 65.5547C230.385 60.0632 235.445 58.0556 235.598 57.9954C235.6 57.9933 235.602 57.9933 235.602 57.9933C241.74 56.9967 246.288 51.5011 245.986 45.1086C245.664 38.2365 239.858 32.9298 233.022 33.2558C232.55 33.2786 232.087 33.3264 231.631 33.4011H231.628C229.716 33.125 213.688 40.6677 213.688 40.6677L213.062 27.3678C212.738 20.4957 206.934 15.189 200.098 15.5129C193.262 15.8389 187.984 21.6729 188.306 28.545L188.816 39.3722C190.041 38.523 191.511 37.9957 193.107 37.9209C193.151 37.9209 193.192 37.9168 193.235 37.9147C195.602 37.84 197.775 38.7763 199.334 40.3417C199.634 40.6428 199.912 40.9667 200.162 41.3113C201.09 42.5819 201.668 44.1328 201.748 45.8228C201.963 50.4049 198.444 54.2956 193.886 54.5116C192.29 54.5863 190.776 54.2022 189.477 53.4735C188.436 52.8901 187.531 52.0845 186.827 51.1191C186.005 52.506 184.789 53.6354 183.326 54.3475C182.352 54.823 181.267 55.1116 180.117 55.1656C175.561 55.3835 171.691 51.8458 171.476 47.2637C171.395 45.5716 171.825 43.975 172.628 42.6214C172.92 42.1314 173.258 41.6746 173.64 41.2573C174.766 40.0241 176.257 39.1313 177.955 38.7597H177.957C178.403 38.6601 178.863 38.5978 179.336 38.5749C180.487 38.521 181.594 38.7057 182.608 39.0857L182.124 28.8398C181.8 21.9677 175.997 16.661 169.161 16.9849C162.325 17.3109 157.046 23.1449 157.368 30.017L157.994 43.3169C157.994 43.3169 150.324 40.6988 143.153 38.4234C143.143 38.4213 143.135 38.4171 143.124 38.4151C142.988 38.3715 142.852 38.3299 142.717 38.2863C141.423 37.9023 140.043 37.7216 138.618 37.7901C131.782 38.1161 126.503 43.9501 126.827 50.8222C127.079 56.2016 130.691 60.6217 135.526 62.1332C135.526 62.1332 135.528 62.1332 135.53 62.1352C135.665 62.1934 140.152 64.1159 159.167 68.2039L159.458 74.4157L145.776 75.0677C138.94 75.3936 133.661 81.2276 133.983 88.0997C134.308 94.9718 140.111 100.279 146.947 99.9546L160.631 99.3027L161.352 114.631C161.676 121.503 167.48 126.81 174.316 126.484C181.152 126.16 186.43 120.324 186.108 113.452L185.388 98.1255L191.567 97.8307L192.288 113.159C192.612 120.031 198.415 125.338 205.251 125.012C212.087 124.688 217.366 118.852 217.044 111.98L216.323 96.6535L231.116 95.9497C237.952 95.6237 243.231 89.7897 242.907 82.9176C242.585 76.0455 236.779 70.7389 229.943 71.0627H229.945ZM188.936 71.8309L184.811 72.0282C180.253 72.2441 176.385 68.7063 176.168 64.1242L176.051 61.637C176.009 60.7193 176.711 59.9428 177.624 59.8992L194.952 59.075C195.862 59.0314 196.637 59.7393 196.68 60.6549L196.798 63.1422C197.013 67.7243 193.494 71.615 188.936 71.8309Z" fill="#9258F1"/>
<path d="M186.519 41.959C186.497 41.9881 186.476 42.0172 186.455 42.0483C186.437 42.0213 186.418 41.9964 186.397 41.9694C186.397 41.9694 186.397 41.968 186.397 41.9653H186.402L186.521 41.959H186.519Z" fill="#9258F1"/>
<path d="M193.888 54.5117C192.292 54.5865 190.778 54.2024 189.479 53.4736C188.438 52.8902 187.533 52.0847 186.829 51.1193C186.007 52.5061 184.791 53.6356 183.329 54.3477C182.354 54.8231 181.269 55.1117 180.119 55.1657C175.563 55.3837 171.693 51.8459 171.478 47.2638C171.398 45.5718 171.827 43.9752 172.631 42.6215C172.922 42.1316 173.26 41.6748 173.643 41.2575C174.768 40.0243 176.259 39.1315 177.957 38.7599H177.959C178.405 38.6602 178.866 38.5979 179.338 38.5751C180.489 38.5211 181.596 38.7059 182.61 39.0858C184.13 39.6547 185.445 40.6637 186.395 41.9655C186.395 41.9655 186.395 41.9668 186.395 41.9696C186.416 41.9966 186.435 42.0215 186.453 42.0485C186.474 42.0174 186.495 41.9883 186.517 41.9592L186.397 41.9655C187.007 40.9378 187.833 40.0533 188.814 39.3723C190.038 38.5232 191.509 37.9958 193.105 37.9211C193.149 37.9211 193.19 37.9169 193.233 37.9149C195.6 37.8401 197.773 38.7765 199.332 40.3419C199.632 40.6429 199.91 40.9668 200.16 41.3115C201.088 42.5821 201.666 44.133 201.746 45.823C201.961 50.4051 198.442 54.2958 193.884 54.5117H193.888Z" fill="white"/>
<path d="M186.4 41.9652C186.4 41.9652 186.397 41.9673 186.397 41.9693C186.418 41.9961 186.437 42.0208 186.455 42.0475C186.476 42.0167 186.496 41.9878 186.519 41.959L186.4 41.9652Z" fill="white"/>
<path d="M176.21 43.577L182.864 46.8874L176.976 51.5436" stroke="black" stroke-width="2" stroke-linecap="round" stroke-linejoin="round"/>
<path d="M196.177 50.045L189.714 46.3753L195.849 42.0483" stroke="black" stroke-width="2" stroke-linecap="round" stroke-linejoin="round"/>
<path d="M117.002 28.9979L107.064 14.454" stroke="#8F89FF" stroke-width="4" stroke-linecap="round"/>
<path d="M127.656 22.7569L127.656 1.99997" stroke="#8F89FF" stroke-width="4" stroke-linecap="round"/>
<path d="M140.386 25.9822L146.562 10.2011" stroke="#8F89FF" stroke-width="4" stroke-linecap="round"/>
</svg>
