<svg width="18" height="17" viewBox="0 0 18 17" fill="none" xmlns="http://www.w3.org/2000/svg">
<path fill-rule="evenodd" clip-rule="evenodd" d="M8.08668 15.9391C8.64168 16.3058 9.35751 16.3058 9.91168 15.9391C11.6742 14.7758 15.5117 11.995 17.165 8.88331C19.3442 4.77831 16.785 0.684143 13.4017 0.684143C11.4733 0.684143 10.3133 1.69164 9.67168 2.55748C9.59461 2.66352 9.49354 2.74982 9.37673 2.80933C9.25992 2.86883 9.13069 2.89985 8.99959 2.89985C8.8685 2.89985 8.73927 2.86883 8.62246 2.80933C8.50565 2.74982 8.40458 2.66352 8.32751 2.55748C7.68584 1.69164 6.52584 0.684143 4.59751 0.684143C1.21418 0.684143 -1.34499 4.77831 0.83501 8.88331C2.48668 11.995 6.32584 14.7758 8.08668 15.9391Z" fill="#D3D9DF"/>
</svg>
