<svg width="27" height="27" viewBox="0 0 27 27" fill="none" xmlns="http://www.w3.org/2000/svg">
<g id="&#234;&#184;&#128;&#236;&#147;&#176;&#234;&#184;&#176; &#236;&#149;&#132;&#236;&#157;&#180;&#236;&#189;&#152;">
<path id="Vector" d="M19.902 11.923L11.923 19.902C10.9677 20.8573 10.9677 22.4061 11.923 23.3614L13.8318 25.2703C14.7871 26.2256 16.3359 26.2256 17.2912 25.2703L25.2703 17.2913C26.2256 16.336 26.2256 14.7871 25.2703 13.8318L23.3614 11.923C22.4061 10.9677 20.8573 10.9677 19.902 11.923Z" fill="#E8DAFF"/>
<path id="Vector_2" d="M19.1268 7.3006L20.3631 8.53695C22.1574 10.3313 22.1574 13.2386 20.3631 15.0329L15.033 20.363C13.2387 22.1574 10.3313 22.1574 8.537 20.363L7.30065 19.1267C6.96587 18.7919 6.69569 18.4219 6.48718 18.0254C6.48718 18.0254 6.48425 18.0225 6.48131 18.0196C6.24637 17.6965 5.21265 16.1107 5.03058 13.2621L5.03058 7.06567C5.03352 6.49888 5.69427 6.21402 6.07898 6.61635L9.6412 10.296L10.44 11.1183C10.4194 11.1506 10.4018 11.1859 10.3871 11.2182C10.2667 11.456 10.2021 11.7262 10.2021 12.0081C10.1992 13.0037 11.0097 13.8142 12.0082 13.8142C13.0067 13.8142 13.8143 13.0066 13.8143 12.0081C13.8143 11.0097 13.0037 10.1991 12.0082 10.2021C11.7556 10.2021 11.5236 10.252 11.3063 10.346C11.3004 10.346 11.2916 10.3489 11.2858 10.3548C11.23 10.3753 11.1771 10.4047 11.1301 10.4341L10.3049 9.63234L6.63108 6.076C6.23169 5.68835 6.51361 5.02466 7.0804 5.02759L13.2739 5.02466C16.4955 5.23316 18.093 6.52531 18.093 6.52531C18.4631 6.72501 18.8125 6.98637 19.1268 7.3006Z" fill="#9258F1"/>
</g>
</svg>
