<svg width="16" height="17" viewBox="0 0 16 17" fill="none" xmlns="http://www.w3.org/2000/svg">
<path fill-rule="evenodd" clip-rule="evenodd" d="M11.4713 7.31008L7.74934 11.0327C7.62395 11.1573 7.4544 11.2272 7.27767 11.2272C7.10095 11.2272 6.9314 11.1573 6.80601 11.0327L4.52867 8.75541C4.46678 8.69352 4.41768 8.62004 4.38418 8.53917C4.35068 8.45829 4.33344 8.37162 4.33344 8.28408C4.33344 8.1073 4.40367 7.93775 4.52867 7.81275C4.65368 7.68774 4.82322 7.61752 5.00001 7.61752C5.17679 7.61752 5.34633 7.68774 5.47134 7.81275L7.27734 9.61875L10.5287 6.36741C10.5906 6.30552 10.6641 6.25642 10.7449 6.22292C10.8258 6.18942 10.9125 6.17218 11 6.17218C11.0875 6.17218 11.1742 6.18942 11.2551 6.22292C11.336 6.25642 11.4094 6.30552 11.4713 6.36741C11.5332 6.42931 11.5823 6.50279 11.6158 6.58366C11.6493 6.66454 11.6666 6.75121 11.6666 6.83875C11.6666 6.92628 11.6493 7.01296 11.6158 7.09383C11.5823 7.1747 11.5332 7.24819 11.4713 7.31008ZM8.00001 1.16675C3.95001 1.16675 0.666672 4.45008 0.666672 8.50008C0.666672 12.5501 3.95001 15.8334 8.00001 15.8334C12.05 15.8334 15.3333 12.5501 15.3333 8.50008C15.3333 4.45008 12.05 1.16675 8.00001 1.16675Z" fill="#9358F2"/>
</svg>
