<svg width="20" height="20" viewBox="0 0 20 20" fill="none" xmlns="http://www.w3.org/2000/svg">
<g clip-path="url(#clip0_1699_5837)">
<path fill-rule="evenodd" clip-rule="evenodd" d="M10.0002 14.265C9.73495 14.265 9.48059 14.1597 9.29306 13.9721C9.10552 13.7846 9.00016 13.5303 9.00016 13.265C9.00016 12.9998 9.10552 12.7455 9.29306 12.5579C9.48059 12.3704 9.73495 12.265 10.0002 12.265C10.2654 12.265 10.5197 12.3704 10.7073 12.5579C10.8948 12.7455 11.0002 12.9998 11.0002 13.265C11.0002 13.5303 10.8948 13.7846 10.7073 13.9721C10.5197 14.1597 10.2654 14.265 10.0002 14.265ZM9.16683 6.06921C9.16683 5.84819 9.25463 5.63623 9.41091 5.47995C9.56719 5.32367 9.77915 5.23587 10.0002 5.23587C10.2212 5.23587 10.4331 5.32367 10.5894 5.47995C10.7457 5.63623 10.8335 5.84819 10.8335 6.06921V10.2359C10.8335 10.4569 10.7457 10.6688 10.5894 10.8251C10.4331 10.9814 10.2212 11.0692 10.0002 11.0692C9.77915 11.0692 9.56719 10.9814 9.41091 10.8251C9.25463 10.6688 9.16683 10.4569 9.16683 10.2359V6.06921ZM10.0002 0.833374C4.93766 0.833374 0.833496 4.93754 0.833496 10C0.833496 15.0634 4.93766 19.1667 10.0002 19.1667C15.0627 19.1667 19.1668 15.0634 19.1668 10C19.1668 4.93754 15.0627 0.833374 10.0002 0.833374Z" fill="#F7CF51"/>
</g>
<defs>
<clipPath id="clip0_1699_5837">
<rect width="20" height="20" fill="white"/>
</clipPath>
</defs>
</svg>
