<svg width="55" height="37" viewBox="0 0 55 37" fill="none" xmlns="http://www.w3.org/2000/svg">
<g id="&#235;&#169;&#148;&#235;&#137;&#180;_illust">
<g id="Group">
<path id="Vector" d="M2.11609 32.6542C2.25944 32.6987 2.40774 32.7185 2.56592 32.7185H2.16058C2.16058 32.7185 2.13092 32.679 2.11609 32.6542Z" fill="#8F89FF"/>
</g>
<g id="Group 20">
<path id="Vector_2" d="M52.6881 20.601C52.7203 21.8467 52.5273 24.1541 51.2127 27.3256C49.9671 30.3316 48.0044 33.402 45.3569 36.5H30.9655C31.177 35.3325 31.7607 34.2202 32.703 33.3561C37.7636 28.7183 39.8963 25.1653 40.7926 23.0004C41.0133 22.4672 41.1558 22.0305 41.2477 21.6858C41.3948 20.7757 41.4132 20.0679 41.4132 20.0679H41.4223C41.5281 18.3672 41.2155 17.0296 40.4847 16.0828C39.9791 15.4301 39.3953 15.1221 39.285 15.067C39.285 15.0624 39.285 15.0624 39.2758 15.0624C37.5935 14.3821 36.2376 14.5522 34.73 15.6277C33.3143 16.6343 32.418 18.0179 32.2939 18.2109C31.3011 20.0035 29.4717 21.1158 27.4171 21.1158C25.3625 21.1158 23.5377 20.0035 22.5449 18.2109C22.4208 18.0179 21.5245 16.6343 20.1088 15.6277C19.0011 14.8371 17.9715 14.5338 16.8362 14.7038C16.4271 14.7636 16.0042 14.8831 15.5584 15.0624C15.5584 15.0624 15.5584 15.0624 15.5492 15.067C15.4434 15.1221 14.8597 15.4301 14.3495 16.0828C13.6095 17.0434 13.2969 18.4131 13.421 20.1552C13.4394 20.385 13.444 20.6194 13.4302 20.8492C13.4394 20.9733 13.49 21.3686 13.6876 22.0121H6.52641C6.27361 22.0121 6.04838 22.1133 5.88751 22.2741C5.72663 22.435 5.62092 22.6602 5.62092 22.913C5.62092 23.4094 6.0254 23.8139 6.52641 23.8139H7.15152C6.72865 23.8139 6.34715 23.984 6.07136 24.2598C5.768 24.5585 5.59334 24.9768 5.62092 25.4365C5.67148 26.2592 6.4161 26.8705 7.23885 26.8705H7.15152C6.72865 26.8705 6.34715 27.0406 6.07136 27.321C5.79098 27.5968 5.62092 27.9783 5.62092 28.4011C5.62092 29.2423 6.30578 29.9271 7.15152 29.9271C6.72865 29.9271 6.34715 30.0972 6.07136 30.373C5.84154 30.6028 5.68527 30.9062 5.6393 31.2417C2.48157 26.0616 2.10926 22.3063 2.15063 20.6102C1.8013 14.4556 4.16845 10.4843 6.23684 8.22291C8.36957 5.89253 10.6678 4.86293 11.3756 4.58715C16.8086 2.40845 22.407 3.18984 27.1367 6.79342C27.2332 6.86697 27.3252 6.94051 27.4171 7.01405C27.5136 6.94051 27.6055 6.86697 27.7021 6.79342C32.4272 3.18984 38.0256 2.40845 43.4586 4.58715C44.1618 4.86293 46.4646 5.89253 48.5973 8.22291C50.6657 10.4843 53.0283 14.451 52.6835 20.601H52.6881Z" fill="#8F89FF"/>
<path id="Vector_3" d="M24.2776 15.4299C26.354 15.4299 28.0373 13.7466 28.0373 11.6701C28.0373 9.59364 26.354 7.91034 24.2776 7.91034C22.2011 7.91034 20.5178 9.59364 20.5178 11.6701C20.5178 13.7466 22.2011 15.4299 24.2776 15.4299Z" fill="white"/>
<path id="Vector_4" d="M30.5518 15.4299C32.6283 15.4299 34.3116 13.7466 34.3116 11.6701C34.3116 9.59364 32.6283 7.91034 30.5518 7.91034C28.4754 7.91034 26.7921 9.59364 26.7921 11.6701C26.7921 13.7466 28.4754 15.4299 30.5518 15.4299Z" fill="white"/>
<path id="Vector_5" d="M23.1972 14.9512C24.4941 14.9512 25.5455 13.8998 25.5455 12.6029C25.5455 11.3059 24.4941 10.2545 23.1972 10.2545C21.9002 10.2545 20.8488 11.3059 20.8488 12.6029C20.8488 13.8998 21.9002 14.9512 23.1972 14.9512Z" fill="black"/>
<path id="Vector_6" d="M29.4666 14.9512C30.7636 14.9512 31.815 13.8998 31.815 12.6029C31.815 11.3059 30.7636 10.2545 29.4666 10.2545C28.1697 10.2545 27.1183 11.3059 27.1183 12.6029C27.1183 13.8998 28.1697 14.9512 29.4666 14.9512Z" fill="black"/>
</g>
<path id="Vector_7" d="M30.1657 34.3818L29.7561 35.6157C29.5762 36.1453 29.0816 36.5 28.5271 36.5H3.82267C3.26813 36.5 2.77355 36.1453 2.59869 35.6157L2.18404 34.3868C1.90427 33.5475 2.52376 32.6782 3.40802 32.6782H25.06V29.3559H5.4663C4.54707 29.3559 3.80269 28.6116 3.80269 27.6973C3.80269 27.2377 3.98754 26.8231 4.29228 26.5233C4.59203 26.2186 5.00669 26.0337 5.4663 26.0337H25.06V22.7115H4.79187C4.24732 22.7115 3.80769 22.2718 3.80769 21.7323C3.80769 21.4575 3.91759 21.2177 4.09744 21.0379C4.27729 20.858 4.51709 20.7531 4.79187 20.7531H26.274C26.3139 20.7531 26.3539 20.7581 26.3939 20.7681C26.4039 20.7631 26.4188 20.7681 26.4288 20.7731C26.4638 20.7781 26.4938 20.7881 26.5238 20.7981C26.5637 20.8081 26.6037 20.8231 26.6387 20.838C26.8535 20.938 27.0233 21.1078 27.1283 21.3226C27.1432 21.3626 27.1582 21.3976 27.1682 21.4375C27.1782 21.4675 27.1882 21.5025 27.1932 21.5325C27.2082 21.5874 27.2132 21.6474 27.2132 21.7073V32.6782H28.9367C29.821 32.6782 30.4455 33.5425 30.1657 34.3818Z" fill="#9258F1"/>
<path id="Vector_8" d="M25.0876 22.7447V26.017C25.0876 26.017 25.0777 26.042 25.0627 26.042H5.5889C4.69464 26.042 3.88532 25.3775 3.83036 24.4833C3.80039 23.9837 3.99023 23.5291 4.31995 23.2043C4.6197 22.9046 5.03436 22.7197 5.49398 22.7197H25.0627C25.0627 22.7197 25.0876 22.7297 25.0876 22.7447Z" fill="#E8DAFF"/>
<path id="Union" fill-rule="evenodd" clip-rule="evenodd" d="M25.0696 32.6864V29.3641H25.0646H5.4709C5.01128 29.3641 4.59663 29.549 4.29688 29.8487C4.04709 30.0985 3.87723 30.4282 3.82727 30.7929C3.83163 30.8002 3.836 30.8074 3.84037 30.8146C3.82727 30.8807 3.82727 30.9502 3.82727 31.0196C3.82727 31.7673 4.32129 32.3987 5.00414 32.604C5.00818 32.6098 5.01223 32.6156 5.01628 32.6214C5.16116 32.6664 5.31103 32.6864 5.4709 32.6864H25.0696Z" fill="#E8DAFF"/>
<path id="Vector_9" d="M16.0041 14.5283C16.0041 14.5283 15.8592 11.1811 11.9575 10.7415" stroke="#9358F2" stroke-miterlimit="10" stroke-linecap="round"/>
<path id="Vector_10" d="M18.1772 17.6407C18.1772 19.3593 16.7884 20.7531 15.0698 20.7531C13.3512 20.7531 11.9574 19.3593 11.9574 17.6407C11.9574 15.9222 13.3512 14.5283 15.0698 14.5283C16.7884 14.5283 18.1772 15.9222 18.1772 17.6407Z" fill="#9258F1"/>
</g>
</svg>
